<?xml version="1.0" encoding="utf-8"?>
<!-- Generator: Adobe Illustrator 24.2.3, SVG Export Plug-In . SVG Version: 6.00 Build 0)  -->
<svg version="1.1" id="Capa_1" xmlns="http://www.w3.org/2000/svg" xmlns:xlink="http://www.w3.org/1999/xlink" x="0px" y="0px"
	 viewBox="0 0 470.4 215.9" style="enable-background:new 0 0 470.4 215.9;" xml:space="preserve">
<style type="text/css">
	.st0{fill:#258F49;}
	.st1{fill:#FFFFFF;}
	.st2{fill:#059A39;}
	.st3{fill:#CFE4C3;}
</style>
<image style="overflow:visible;" width="500" height="232" xlink:href="B5E8909C9CCD769E.jpg"  transform="matrix(1 0 0 1 705.1917 180.9467)">
</image>
<g>
	
		<image style="overflow:visible;" width="518" height="557" xlink:href="B5E8909C9CCD76A2.png"  transform="matrix(0.24 0 0 0.24 702.9517 176.7067)">
	</image>
</g>
<g>
	
		<image style="overflow:visible;" width="513" height="551" xlink:href="B5E8909C9CCD76A5.png"  transform="matrix(0.24 0 0 0.24 749.9918 176.7067)">
	</image>
</g>
<g>
	
		<image style="overflow:visible;" width="507" height="550" xlink:href="B5E8909C9CCD76A6.png"  transform="matrix(0.24 0 0 0.24 981.1118 247.7467)">
	</image>
</g>
<g>
	
		<image style="overflow:visible;" width="567" height="552" xlink:href="B5E8909C9CCD76A4.png"  transform="matrix(0.24 0 0 0.24 794.8718 176.7067)">
	</image>
</g>
<g>
	
		<image style="overflow:visible;" width="508" height="546" xlink:href="B5E8909C9CCD76A3.png"  transform="matrix(0.24 0 0 0.24 1087.1918 247.9868)">
	</image>
</g>
<g>
	
		<image style="overflow:visible;" width="550" height="554" xlink:href="B5E8909C9CCD76AD.png"  transform="matrix(0.24 0 0 0.24 1028.8717 246.7867)">
	</image>
</g>
<text transform="matrix(1 0 0 1 721.2205 449.7029)" style="font-family:'Comfortaa-Regular'; font-size:26.2518px;">portal de Revistas de Enfermagem</text>
<text transform="matrix(1 0 0 1 726.132 502.5807)" style="font-family:'StudioGothicAlternateTrial-Extr'; font-size:31.4263px;">Portal de Revistas de Enfermagem</text>
<text transform="matrix(1 0 0 1 726.132 545.5518)" style="font-family:'RoundedElegance-Regular'; font-size:31.4263px;">portal de revistas de Enfermagem</text>
<text transform="matrix(1 0 0 1 726.132 583.612)" style="font-family:'Opificio-Light'; font-size:31.4263px;">portal de Revistas de Enfermagem</text>
<text transform="matrix(1 0 0 1 726.132 625.3554)" style="font-family:'Curvy'; font-size:31.4263px;">portal de Revistas de Enfermagem</text>
<g>
	<path class="st0" d="M737.7,374.1c1.2,0.7,2.2,1.7,2.9,2.9c0.7,1.2,1.1,2.6,1.1,4.1s-0.3,2.9-1,4.1c-0.7,1.2-1.6,2.2-2.8,2.9
		c-1.2,0.7-2.5,1.1-4,1.1c-1.3,0-2.4-0.3-3.4-0.8c-1-0.5-1.9-1.3-2.6-2.2v8.5c0,0.3-0.1,0.6-0.3,0.8c-0.2,0.2-0.5,0.3-0.8,0.3
		c-0.3,0-0.6-0.1-0.8-0.3c-0.2-0.2-0.3-0.5-0.3-0.8v-6.5c0-0.1,0-0.1,0-0.3v-6.8c0-1.5,0.4-2.9,1.1-4.1c0.7-1.2,1.7-2.2,2.9-2.9
		c1.2-0.7,2.6-1.1,4.1-1.1S736.5,373.3,737.7,374.1z M736.6,386.3c0.9-0.5,1.6-1.2,2.1-2.2c0.5-0.9,0.8-1.9,0.8-3.1
		c0-1.1-0.3-2.2-0.8-3.1c-0.5-0.9-1.2-1.6-2.1-2.2c-0.9-0.5-1.9-0.8-3-0.8s-2.1,0.3-3,0.8s-1.6,1.3-2.1,2.2
		c-0.5,0.9-0.8,1.9-0.8,3.1c0,0.3,0,0.6,0,0.7c0,0,0,0.1,0,0.1c0.2,1.5,0.8,2.7,1.9,3.7c1.1,1,2.4,1.4,3.9,1.4
		C734.7,387.1,735.7,386.8,736.6,386.3z"/>
	<path class="st0" d="M747.2,393.1c-1.1-0.6-2-1.5-2.6-2.6c-0.6-1.1-1-2.4-1-3.8c0-1.4,0.3-2.7,1-3.8c0.6-1.1,1.5-2,2.6-2.7
		c1.1-0.6,2.4-1,3.8-1c1.4,0,2.7,0.3,3.8,1c1.1,0.6,2,1.5,2.6,2.7c0.6,1.1,1,2.4,1,3.8c0,1.4-0.3,2.7-1,3.8c-0.6,1.1-1.5,2-2.6,2.6
		c-1.1,0.6-2.4,1-3.8,1C749.6,394.1,748.3,393.7,747.2,393.1z M753.8,391.5c0.8-0.5,1.5-1.1,1.9-2c0.5-0.8,0.7-1.8,0.7-2.8
		c0-1.1-0.2-2-0.7-2.9c-0.5-0.8-1.1-1.5-1.9-2c-0.8-0.5-1.7-0.7-2.8-0.7c-1,0-1.9,0.2-2.8,0.7c-0.8,0.5-1.5,1.1-1.9,2
		c-0.5,0.8-0.7,1.8-0.7,2.9c0,1,0.2,2,0.7,2.8c0.5,0.8,1.1,1.5,1.9,2c0.8,0.5,1.7,0.7,2.8,0.7C752,392.2,752.9,392,753.8,391.5z"/>
	<path class="st0" d="M768.6,379.5c0.4,0.2,0.7,0.5,0.7,0.8c0,0.1,0,0.2,0,0.2c-0.1,0.2-0.2,0.4-0.3,0.5c-0.2,0.1-0.4,0.1-0.6,0.1
		c-0.2,0-0.4,0-0.8-0.1c-0.1,0-0.4,0-0.6,0c-1.3,0-2.4,0.4-3.3,1.1c-0.8,0.7-1.3,1.6-1.3,2.8v8c0,0.3-0.1,0.6-0.3,0.7
		c-0.2,0.2-0.4,0.3-0.7,0.3c-0.3,0-0.6-0.1-0.7-0.3c-0.2-0.2-0.3-0.4-0.3-0.7v-12.5c0-0.3,0.1-0.6,0.3-0.7c0.2-0.2,0.4-0.3,0.7-0.3
		c0.3,0,0.6,0.1,0.7,0.3c0.2,0.2,0.3,0.4,0.3,0.7v1.2c0.5-0.7,1.2-1.3,2-1.7c0.8-0.4,1.7-0.6,2.6-0.6
		C767.5,379.2,768.1,379.3,768.6,379.5z"/>
	<path class="st0" d="M782.2,392.2c0.2,0.2,0.3,0.4,0.3,0.7c0,0.3-0.1,0.5-0.3,0.7c-0.2,0.2-0.5,0.3-0.8,0.3h-0.6
		c-0.9,0-1.8-0.2-2.5-0.7c-0.7-0.5-1.3-1.1-1.7-1.8c-0.4-0.8-0.6-1.6-0.6-2.6v-7.1h-1.7c-0.3,0-0.5-0.1-0.7-0.3
		c-0.2-0.2-0.3-0.4-0.3-0.6c0-0.3,0.1-0.5,0.3-0.7c0.2-0.2,0.4-0.3,0.7-0.3h1.7v-4.1c0-0.3,0.1-0.6,0.3-0.7c0.2-0.2,0.4-0.3,0.7-0.3
		c0.3,0,0.5,0.1,0.7,0.3c0.2,0.2,0.3,0.4,0.3,0.7v4.1h3c0.3,0,0.5,0.1,0.7,0.3c0.2,0.2,0.3,0.4,0.3,0.7c0,0.2-0.1,0.5-0.3,0.6
		c-0.2,0.2-0.4,0.3-0.7,0.3h-3v7.1c0,0.9,0.3,1.6,0.8,2.2c0.5,0.6,1.2,0.9,2,0.9h0.7C781.8,391.9,782,392,782.2,392.2z"/>
	<path class="st0" d="M795.1,380.2c1.1,0.6,2,1.5,2.7,2.7c0.6,1.1,1,2.4,1,3.8v6.3c0,0.3-0.1,0.5-0.3,0.7c-0.2,0.2-0.4,0.3-0.7,0.3
		s-0.5-0.1-0.7-0.3c-0.2-0.2-0.3-0.4-0.3-0.7v-1.6c-0.6,0.9-1.4,1.5-2.4,2c-1,0.5-2,0.7-3.2,0.7c-1.3,0-2.6-0.3-3.7-1
		c-1.1-0.6-2-1.5-2.6-2.7c-0.6-1.1-0.9-2.4-0.9-3.8c0-1.4,0.3-2.6,1-3.8c0.6-1.1,1.5-2,2.7-2.7c1.1-0.6,2.4-1,3.8-1
		S793.9,379.6,795.1,380.2z M794,391.5c0.8-0.5,1.5-1.1,1.9-2c0.5-0.8,0.7-1.8,0.7-2.8c0-1-0.2-2-0.7-2.8c-0.5-0.8-1.1-1.5-1.9-2
		c-0.8-0.5-1.7-0.7-2.7-0.7s-1.9,0.2-2.8,0.7c-0.8,0.5-1.5,1.2-1.9,2c-0.5,0.8-0.7,1.8-0.7,2.8c0,1,0.2,2,0.7,2.8
		c0.5,0.8,1.1,1.5,1.9,2c0.8,0.5,1.7,0.7,2.8,0.7S793.2,392,794,391.5z"/>
	<path class="st0" d="M801.5,392.6c-0.7-0.9-1-2-1-3.3v-15.2c0-0.3,0.1-0.5,0.3-0.7c0.2-0.2,0.4-0.3,0.7-0.3c0.3,0,0.5,0.1,0.7,0.3
		c0.2,0.2,0.3,0.4,0.3,0.7v15.2c0,0.8,0.2,1.4,0.5,1.9c0.3,0.5,0.7,0.7,1.2,0.7h0.7c0.3,0,0.5,0.1,0.6,0.3c0.2,0.2,0.2,0.4,0.2,0.7
		c0,0.3-0.1,0.5-0.3,0.7s-0.5,0.3-0.9,0.3h-0.3C803.1,393.9,802.2,393.5,801.5,392.6z"/>
	<path class="st0" d="M830,380.4v6.3c0,1.4-0.3,2.6-1,3.8c-0.6,1.1-1.5,2-2.7,2.7c-1.1,0.6-2.4,1-3.8,1c-1.4,0-2.6-0.3-3.8-1
		c-1.1-0.6-2-1.5-2.7-2.7c-0.6-1.1-1-2.4-1-3.8c0-1.4,0.3-2.6,0.9-3.8c0.6-1.1,1.5-2,2.6-2.7c1.1-0.6,2.3-1,3.7-1
		c1.2,0,2.2,0.2,3.2,0.7c1,0.5,1.7,1.2,2.4,2v-7.8c0-0.3,0.1-0.6,0.3-0.7c0.2-0.2,0.4-0.3,0.7-0.3c0.3,0,0.5,0.1,0.7,0.3
		c0.2,0.2,0.3,0.4,0.3,0.7v6C829.9,380.2,830,380.3,830,380.4z M825.3,391.5c0.8-0.5,1.5-1.2,1.9-2c0.5-0.8,0.7-1.8,0.7-2.8
		c0-0.3,0-0.5,0-0.7c0,0,0-0.1,0-0.1c-0.2-1.4-0.8-2.5-1.7-3.4c-1-0.9-2.2-1.3-3.6-1.3c-1,0-1.9,0.2-2.8,0.7c-0.8,0.5-1.5,1.1-1.9,2
		c-0.5,0.8-0.7,1.8-0.7,2.8c0,1,0.2,2,0.7,2.8c0.5,0.8,1.1,1.5,1.9,2c0.8,0.5,1.7,0.7,2.8,0.7S824.5,392,825.3,391.5z"/>
	<path class="st0" d="M843.2,380.2c1,0.6,1.8,1.5,2.4,2.5c0.6,1.1,0.8,2.3,0.8,3.7c0,0.3-0.1,0.5-0.3,0.7c-0.2,0.2-0.4,0.3-0.7,0.3
		h-10.7c0.1,1.5,0.7,2.6,1.7,3.5c1,0.9,2.2,1.4,3.7,1.4c0.6,0,1.3-0.1,1.9-0.3c0.6-0.2,1.2-0.5,1.6-0.8c0.2-0.2,0.5-0.3,0.7-0.3
		c0.2,0,0.4,0.1,0.6,0.2c0.2,0.2,0.3,0.5,0.3,0.7c0,0.2-0.1,0.4-0.3,0.6c-0.6,0.5-1.3,0.9-2.2,1.2c-0.9,0.3-1.8,0.5-2.6,0.5
		c-1.4,0-2.7-0.3-3.8-0.9s-2-1.5-2.6-2.6s-0.9-2.4-0.9-3.8c0-1.4,0.3-2.7,0.9-3.8c0.6-1.1,1.4-2,2.5-2.6c1.1-0.6,2.3-0.9,3.6-0.9
		C841.1,379.2,842.2,379.5,843.2,380.2z M836.4,382.3c-0.9,0.8-1.4,1.9-1.6,3.3h9.7c-0.1-1.4-0.6-2.5-1.5-3.3
		c-0.9-0.8-1.9-1.3-3.3-1.3C838.4,381.1,837.3,381.5,836.4,382.3z"/>
	<path class="st0" d="M872.4,393c0,0.3-0.1,0.5-0.3,0.6c-0.2,0.2-0.5,0.2-0.8,0.2c-0.2,0-0.4,0-0.5-0.1c-0.1-0.1-0.3-0.2-0.4-0.4
		l-4.8-7.6h-0.5h-3.9v7.1c0,0.3-0.1,0.5-0.3,0.7c-0.2,0.2-0.4,0.3-0.7,0.3c-0.3,0-0.5-0.1-0.7-0.3c-0.2-0.2-0.3-0.4-0.3-0.7v-15.6
		c0-0.3,1-4.3,5.7-4.3c1.7,0,2.8,0.4,3.8,1c1,0.5,1.8,1.3,2.4,2.3c0.6,1,0.9,2.1,0.9,3.3c0,1.4-0.4,2.6-1.1,3.6
		c-0.7,1-1.7,1.8-3,2.2l4.4,7C872.3,392.6,872.4,392.8,872.4,393z M865.2,383.8c0.9,0,1.7-0.2,2.4-0.5c0.7-0.4,1.3-0.9,1.7-1.5
		c0.4-0.6,0.6-1.4,0.6-2.2c0-0.9-0.2-1.6-0.6-2.3c-0.4-0.7-1-1.2-1.7-1.6c-0.7-0.4-1.5-0.6-2.4-0.6c-1.7,0-3.8,0.8-4,2
		c-0.3,1.6,0,6.6,0,6.6H865.2z"/>
	<path class="st0" d="M886,380.2c1,0.6,1.8,1.5,2.4,2.5c0.6,1.1,0.8,2.3,0.8,3.7c0,0.3-0.1,0.5-0.3,0.7c-0.2,0.2-0.4,0.3-0.7,0.3
		h-10.7c0.1,1.5,0.7,2.6,1.7,3.5c1,0.9,2.2,1.4,3.7,1.4c0.6,0,1.3-0.1,1.9-0.3c0.6-0.2,1.2-0.5,1.6-0.8c0.2-0.2,0.5-0.3,0.7-0.3
		c0.2,0,0.4,0.1,0.6,0.2c0.2,0.2,0.3,0.5,0.3,0.7c0,0.2-0.1,0.4-0.3,0.6c-0.6,0.5-1.3,0.9-2.2,1.2c-0.9,0.3-1.8,0.5-2.6,0.5
		c-1.4,0-2.7-0.3-3.8-0.9s-2-1.5-2.6-2.6s-0.9-2.4-0.9-3.8c0-1.4,0.3-2.7,0.9-3.8c0.6-1.1,1.4-2,2.5-2.6c1.1-0.6,2.3-0.9,3.6-0.9
		C883.9,379.2,885,379.5,886,380.2z M879.2,382.3c-0.9,0.8-1.4,1.9-1.6,3.3h9.7c-0.1-1.4-0.6-2.5-1.5-3.3c-0.9-0.8-1.9-1.3-3.3-1.3
		C881.2,381.1,880.1,381.5,879.2,382.3z"/>
	<path class="st0" d="M905.9,380.3c0,0.1,0,0.2-0.1,0.4l-5.8,12.6c-0.2,0.5-0.6,0.7-1,0.7c-0.4,0-0.7-0.2-1-0.7l-5.9-12.5
		c-0.1-0.1-0.1-0.2-0.1-0.4c0-0.4,0.2-0.7,0.6-0.9c0.1-0.1,0.3-0.1,0.4-0.1c0.2,0,0.3,0,0.5,0.1c0.2,0.1,0.3,0.2,0.3,0.4L899,391
		l5.1-11.1c0.1-0.2,0.2-0.3,0.3-0.4c0.2-0.1,0.3-0.1,0.5-0.1c0.2,0,0.3,0,0.4,0.1C905.7,379.6,905.9,379.9,905.9,380.3z"/>
	<path class="st0" d="M907.7,376.2c-0.3-0.3-0.4-0.6-0.4-1c0-0.4,0.1-0.8,0.4-1c0.3-0.3,0.6-0.4,1-0.4c0.4,0,0.7,0.1,1,0.4
		c0.3,0.3,0.4,0.6,0.4,1c0,0.4-0.1,0.8-0.4,1c-0.3,0.3-0.6,0.4-1,0.4C908.3,376.6,907.9,376.5,907.7,376.2z M908,393.6
		c-0.2-0.2-0.3-0.4-0.3-0.7v-12.5c0-0.3,0.1-0.5,0.3-0.7c0.2-0.2,0.4-0.3,0.7-0.3c0.3,0,0.5,0.1,0.7,0.3c0.2,0.2,0.3,0.4,0.3,0.7
		v12.5c0,0.3-0.1,0.5-0.3,0.7c-0.2,0.2-0.4,0.3-0.7,0.3C908.4,393.9,908.2,393.8,908,393.6z"/>
	<path class="st0" d="M915.5,393.5c-1-0.4-1.8-0.9-2.4-1.6c-0.2-0.2-0.3-0.4-0.3-0.6c0-0.3,0.1-0.6,0.4-0.8c0.2-0.2,0.4-0.2,0.7-0.2
		c0.3,0,0.6,0.1,0.8,0.4c0.4,0.5,1,0.9,1.7,1.1c0.7,0.3,1.5,0.4,2.3,0.4c1.2,0,2.2-0.2,2.8-0.6c0.6-0.4,0.9-1,1-1.7
		c0-0.6-0.3-1.2-0.9-1.6c-0.6-0.4-1.6-0.7-3-1c-1.7-0.3-3-0.8-3.9-1.5c-0.9-0.7-1.3-1.5-1.3-2.5c0-1.3,0.5-2.3,1.5-3
		c1-0.7,2.3-1.1,3.8-1.1c1.2,0,2.2,0.2,3.1,0.6c0.9,0.4,1.6,1,2.1,1.7c0.1,0.2,0.2,0.4,0.2,0.6c0,0.3-0.1,0.5-0.4,0.7
		c-0.1,0.1-0.3,0.1-0.5,0.1c-0.4,0-0.7-0.1-0.9-0.4c-0.9-1-2.1-1.5-3.6-1.5c-1,0-1.8,0.2-2.3,0.6c-0.6,0.4-0.9,0.9-0.9,1.5
		c0,0.6,0.3,1.1,0.8,1.5c0.5,0.4,1.5,0.7,2.9,0.9c1.9,0.3,3.3,0.8,4.1,1.6c0.8,0.7,1.2,1.6,1.2,2.7c0,0.8-0.2,1.5-0.7,2.2
		c-0.5,0.6-1.2,1.1-2,1.5c-0.9,0.4-1.9,0.5-3,0.5C917.5,394.1,916.5,393.9,915.5,393.5z"/>
	<path class="st0" d="M933.5,392.2c0.2,0.2,0.3,0.4,0.3,0.7c0,0.3-0.1,0.5-0.3,0.7c-0.2,0.2-0.5,0.3-0.8,0.3h-0.6
		c-0.9,0-1.8-0.2-2.5-0.7c-0.7-0.5-1.3-1.1-1.7-1.8c-0.4-0.8-0.6-1.6-0.6-2.6v-7.1h-1.7c-0.3,0-0.5-0.1-0.7-0.3
		c-0.2-0.2-0.3-0.4-0.3-0.6c0-0.3,0.1-0.5,0.3-0.7c0.2-0.2,0.4-0.3,0.7-0.3h1.7v-4.1c0-0.3,0.1-0.6,0.3-0.7c0.2-0.2,0.4-0.3,0.7-0.3
		c0.3,0,0.5,0.1,0.7,0.3c0.2,0.2,0.3,0.4,0.3,0.7v4.1h3c0.3,0,0.5,0.1,0.7,0.3c0.2,0.2,0.3,0.4,0.3,0.7c0,0.2-0.1,0.5-0.3,0.6
		c-0.2,0.2-0.4,0.3-0.7,0.3h-3v7.1c0,0.9,0.3,1.6,0.8,2.2c0.5,0.6,1.2,0.9,2,0.9h0.7C933.1,391.9,933.3,392,933.5,392.2z"/>
	<path class="st0" d="M945.8,380.2c1.1,0.6,2,1.5,2.7,2.7c0.6,1.1,1,2.4,1,3.8v6.3c0,0.3-0.1,0.5-0.3,0.7c-0.2,0.2-0.4,0.3-0.7,0.3
		c-0.3,0-0.5-0.1-0.7-0.3c-0.2-0.2-0.3-0.4-0.3-0.7v-1.6c-0.6,0.9-1.4,1.5-2.4,2c-1,0.5-2,0.7-3.2,0.7c-1.3,0-2.6-0.3-3.7-1
		c-1.1-0.6-2-1.5-2.6-2.7c-0.6-1.1-0.9-2.4-0.9-3.8c0-1.4,0.3-2.6,1-3.8c0.6-1.1,1.5-2,2.7-2.7c1.1-0.6,2.4-1,3.8-1
		S944.7,379.6,945.8,380.2z M944.8,391.5c0.8-0.5,1.5-1.1,1.9-2c0.5-0.8,0.7-1.8,0.7-2.8c0-1-0.2-2-0.7-2.8c-0.5-0.8-1.1-1.5-1.9-2
		c-0.8-0.5-1.7-0.7-2.7-0.7s-1.9,0.2-2.8,0.7c-0.8,0.5-1.5,1.2-1.9,2c-0.5,0.8-0.7,1.8-0.7,2.8c0,1,0.2,2,0.7,2.8
		c0.5,0.8,1.1,1.5,1.9,2c0.8,0.5,1.7,0.7,2.8,0.7S944,392,944.8,391.5z"/>
	<path class="st0" d="M954.5,393.5c-1-0.4-1.8-0.9-2.4-1.6c-0.2-0.2-0.3-0.4-0.3-0.6c0-0.3,0.1-0.6,0.4-0.8c0.2-0.2,0.4-0.2,0.7-0.2
		c0.3,0,0.6,0.1,0.8,0.4c0.4,0.5,1,0.9,1.7,1.1c0.7,0.3,1.5,0.4,2.3,0.4c1.2,0,2.2-0.2,2.8-0.6c0.6-0.4,0.9-1,1-1.7
		c0-0.6-0.3-1.2-0.9-1.6c-0.6-0.4-1.6-0.7-3-1c-1.7-0.3-3-0.8-3.9-1.5c-0.9-0.7-1.3-1.5-1.3-2.5c0-1.3,0.5-2.3,1.5-3
		c1-0.7,2.3-1.1,3.8-1.1c1.2,0,2.2,0.2,3.1,0.6c0.9,0.4,1.6,1,2.1,1.7c0.1,0.2,0.2,0.4,0.2,0.6c0,0.3-0.1,0.5-0.4,0.7
		c-0.1,0.1-0.3,0.1-0.5,0.1c-0.4,0-0.7-0.1-0.9-0.4c-0.9-1-2.1-1.5-3.6-1.5c-1,0-1.8,0.2-2.3,0.6c-0.6,0.4-0.9,0.9-0.9,1.5
		c0,0.6,0.3,1.1,0.8,1.5c0.5,0.4,1.5,0.7,2.9,0.9c1.9,0.3,3.3,0.8,4.1,1.6c0.8,0.7,1.2,1.6,1.2,2.7c0,0.8-0.2,1.5-0.7,2.2
		c-0.5,0.6-1.2,1.1-2,1.5c-0.9,0.4-1.9,0.5-3,0.5C956.5,394.1,955.5,393.9,954.5,393.5z"/>
	<path class="st0" d="M989.9,380.4v6.3c0,1.4-0.3,2.6-1,3.8s-1.5,2-2.7,2.7c-1.1,0.6-2.4,1-3.8,1c-1.4,0-2.6-0.3-3.8-1
		c-1.1-0.6-2-1.5-2.7-2.7s-1-2.4-1-3.8c0-1.4,0.3-2.6,0.9-3.8c0.6-1.1,1.5-2,2.6-2.7c1.1-0.6,2.3-1,3.7-1c1.2,0,2.2,0.2,3.2,0.7
		c1,0.5,1.7,1.2,2.4,2v-7.8c0-0.3,0.1-0.6,0.3-0.7c0.2-0.2,0.4-0.3,0.7-0.3c0.3,0,0.5,0.1,0.7,0.3c0.2,0.2,0.3,0.4,0.3,0.7v6
		C989.9,380.2,989.9,380.3,989.9,380.4z M985.3,391.5c0.8-0.5,1.5-1.2,1.9-2c0.5-0.8,0.7-1.8,0.7-2.8c0-0.3,0-0.5,0-0.7
		c0,0,0-0.1,0-0.1c-0.2-1.4-0.8-2.5-1.7-3.4c-1-0.9-2.2-1.3-3.6-1.3c-1,0-1.9,0.2-2.8,0.7c-0.8,0.5-1.5,1.1-1.9,2
		c-0.5,0.8-0.7,1.8-0.7,2.8c0,1,0.2,2,0.7,2.8c0.5,0.8,1.1,1.5,1.9,2c0.8,0.5,1.7,0.7,2.8,0.7C983.6,392.2,984.5,392,985.3,391.5z"
		/>
	<path class="st0" d="M1003.2,380.2c1,0.6,1.8,1.5,2.4,2.5c0.6,1.1,0.8,2.3,0.8,3.7c0,0.3-0.1,0.5-0.3,0.7c-0.2,0.2-0.4,0.3-0.7,0.3
		h-10.7c0.1,1.5,0.7,2.6,1.7,3.5c1,0.9,2.2,1.4,3.7,1.4c0.6,0,1.3-0.1,1.9-0.3c0.6-0.2,1.2-0.5,1.6-0.8c0.2-0.2,0.5-0.3,0.7-0.3
		c0.2,0,0.4,0.1,0.6,0.2c0.2,0.2,0.3,0.5,0.3,0.7c0,0.2-0.1,0.4-0.3,0.6c-0.6,0.5-1.3,0.9-2.2,1.2c-0.9,0.3-1.8,0.5-2.6,0.5
		c-1.4,0-2.7-0.3-3.8-0.9c-1.1-0.6-2-1.5-2.6-2.6s-0.9-2.4-0.9-3.8c0-1.4,0.3-2.7,0.9-3.8c0.6-1.1,1.4-2,2.5-2.6s2.3-0.9,3.6-0.9
		C1001,379.2,1002.2,379.5,1003.2,380.2z M996.3,382.3c-0.9,0.8-1.4,1.9-1.6,3.3h9.7c-0.1-1.4-0.6-2.5-1.5-3.3
		c-0.9-0.8-1.9-1.3-3.3-1.3C998.3,381.1,997.2,381.5,996.3,382.3z"/>
	<path class="st0" d="M1044,380c1,0.5,1.8,1.3,2.4,2.3c0.6,1,0.9,2.2,0.9,3.7v6.9c0,0.3-0.1,0.5-0.3,0.7c-0.2,0.2-0.4,0.3-0.7,0.3
		c-0.3,0-0.6-0.1-0.7-0.3c-0.2-0.2-0.3-0.4-0.3-0.7V386c0-1.6-0.4-2.8-1.3-3.6c-0.9-0.8-2-1.2-3.4-1.2c-0.9,0-1.7,0.2-2.4,0.5
		c-0.7,0.3-1.3,0.8-1.7,1.4c-0.4,0.6-0.6,1.3-0.6,2v7.9c0,0.3-0.1,0.5-0.3,0.7s-0.4,0.3-0.7,0.3c-0.3,0-0.6-0.1-0.7-0.3
		s-0.3-0.4-0.3-0.7v-12.5c0-0.3,0.1-0.5,0.3-0.7c0.2-0.2,0.4-0.3,0.7-0.3c0.3,0,0.5,0.1,0.7,0.3c0.2,0.2,0.3,0.4,0.3,0.7v0.9
		c0.6-0.7,1.3-1.2,2.1-1.5c0.8-0.4,1.7-0.6,2.7-0.6C1041.9,379.2,1043,379.5,1044,380z"/>
	<path class="st0" d="M1057,377c-0.6,0.8-0.9,1.8-0.9,3.1v0.6h3.2c0.3,0,0.5,0.1,0.7,0.3c0.2,0.2,0.3,0.4,0.3,0.7
		c0,0.2-0.1,0.5-0.3,0.6c-0.2,0.2-0.4,0.3-0.7,0.3h-3.2v11.2c0,0.3-0.1,0.6-0.3,0.8c-0.2,0.2-0.4,0.3-0.8,0.3
		c-0.3,0-0.5-0.1-0.7-0.3c-0.2-0.2-0.3-0.4-0.3-0.8v-11.2h-1.7c-0.3,0-0.5-0.1-0.7-0.3c-0.2-0.2-0.3-0.4-0.3-0.6
		c0-0.3,0.1-0.5,0.3-0.7c0.2-0.2,0.4-0.3,0.7-0.3h1.7v-0.5c0-1.9,0.5-3.4,1.5-4.5c1-1.1,2.4-1.7,4.1-1.7c0.3,0,0.5,0.1,0.7,0.3
		c0.2,0.2,0.3,0.4,0.3,0.7s-0.1,0.5-0.3,0.7c-0.2,0.2-0.4,0.3-0.7,0.3C1058.4,375.9,1057.5,376.3,1057,377z"/>
	<path class="st0" d="M1073.3,380.2c1,0.6,1.8,1.5,2.4,2.5c0.6,1.1,0.8,2.3,0.8,3.7c0,0.3-0.1,0.5-0.3,0.7c-0.2,0.2-0.4,0.3-0.7,0.3
		h-10.7c0.1,1.5,0.7,2.6,1.7,3.5c1,0.9,2.2,1.4,3.7,1.4c0.6,0,1.3-0.1,1.9-0.3c0.6-0.2,1.2-0.5,1.6-0.8c0.2-0.2,0.5-0.3,0.7-0.3
		c0.2,0,0.4,0.1,0.6,0.2c0.2,0.2,0.3,0.5,0.3,0.7c0,0.2-0.1,0.4-0.3,0.6c-0.6,0.5-1.3,0.9-2.2,1.2c-0.9,0.3-1.8,0.5-2.6,0.5
		c-1.4,0-2.7-0.3-3.8-0.9s-2-1.5-2.6-2.6c-0.6-1.1-0.9-2.4-0.9-3.8c0-1.4,0.3-2.7,0.9-3.8c0.6-1.1,1.4-2,2.5-2.6
		c1.1-0.6,2.3-0.9,3.6-0.9C1071.1,379.2,1072.2,379.5,1073.3,380.2z M1066.4,382.3c-0.9,0.8-1.4,1.9-1.6,3.3h9.7
		c-0.1-1.4-0.6-2.5-1.5-3.3c-0.9-0.8-1.9-1.3-3.3-1.3C1068.4,381.1,1067.3,381.5,1066.4,382.3z"/>
	<path class="st0" d="M1086.9,379.5c0.4,0.2,0.7,0.5,0.7,0.8c0,0.1,0,0.2,0,0.2c-0.1,0.2-0.2,0.4-0.3,0.5c-0.2,0.1-0.4,0.1-0.6,0.1
		c-0.2,0-0.4,0-0.8-0.1c-0.1,0-0.4,0-0.6,0c-1.3,0-2.4,0.4-3.3,1.1c-0.8,0.7-1.3,1.6-1.3,2.8v8c0,0.3-0.1,0.6-0.3,0.7
		c-0.2,0.2-0.4,0.3-0.7,0.3c-0.3,0-0.6-0.1-0.7-0.3c-0.2-0.2-0.3-0.4-0.3-0.7v-12.5c0-0.3,0.1-0.6,0.3-0.7c0.2-0.2,0.4-0.3,0.7-0.3
		c0.3,0,0.6,0.1,0.7,0.3c0.2,0.2,0.3,0.4,0.3,0.7v1.2c0.5-0.7,1.2-1.3,2-1.7c0.8-0.4,1.7-0.6,2.6-0.6
		C1085.9,379.2,1086.5,379.3,1086.9,379.5z"/>
	<path class="st0" d="M1111.6,380c0.8,0.5,1.4,1.2,1.9,2.1c0.5,0.9,0.7,2,0.7,3.2v7.7c0,0.3-0.1,0.5-0.3,0.7
		c-0.2,0.2-0.4,0.3-0.7,0.3s-0.6-0.1-0.7-0.3s-0.3-0.4-0.3-0.7v-7.7c0-1.3-0.3-2.3-1-3c-0.6-0.7-1.5-1.1-2.5-1.1
		c-1.1,0-2,0.4-2.7,1.1c-0.7,0.7-1,1.7-1,2.9v0.1v7.7c0,0.3-0.1,0.5-0.3,0.7c-0.2,0.2-0.4,0.3-0.7,0.3c-0.3,0-0.5-0.1-0.7-0.3
		c-0.2-0.2-0.3-0.4-0.3-0.7v-7.7c0-1.3-0.3-2.3-1-3c-0.6-0.7-1.5-1.1-2.5-1.1c-1.1,0-2,0.4-2.7,1.1c-0.7,0.7-1.1,1.7-1.1,2.8v7.9
		c0,0.3-0.1,0.5-0.3,0.7s-0.4,0.3-0.7,0.3c-0.3,0-0.6-0.1-0.7-0.3s-0.3-0.4-0.3-0.7v-12.5c0-0.3,0.1-0.5,0.3-0.7
		c0.2-0.2,0.4-0.3,0.7-0.3c0.3,0,0.5,0.1,0.7,0.3c0.2,0.2,0.3,0.4,0.3,0.7v0.6c0.5-0.6,1.1-1,1.8-1.3c0.7-0.3,1.4-0.5,2.2-0.5
		c1,0,1.9,0.2,2.6,0.7c0.8,0.4,1.4,1.1,1.9,1.9c0.5-0.8,1.2-1.4,2-1.9c0.8-0.4,1.8-0.7,2.8-0.7
		C1109.9,379.2,1110.8,379.5,1111.6,380z"/>
	<path class="st0" d="M1127.7,380.2c1.1,0.6,2,1.5,2.7,2.7c0.6,1.1,1,2.4,1,3.8v6.3c0,0.3-0.1,0.5-0.3,0.7c-0.2,0.2-0.4,0.3-0.7,0.3
		c-0.3,0-0.6-0.1-0.7-0.3s-0.3-0.4-0.3-0.7v-1.6c-0.6,0.9-1.4,1.5-2.4,2c-1,0.5-2,0.7-3.2,0.7c-1.3,0-2.6-0.3-3.7-1
		c-1.1-0.6-2-1.5-2.6-2.7c-0.6-1.1-0.9-2.4-0.9-3.8c0-1.4,0.3-2.6,1-3.8c0.6-1.1,1.5-2,2.7-2.7c1.1-0.6,2.4-1,3.8-1
		C1125.3,379.2,1126.6,379.6,1127.7,380.2z M1126.7,391.5c0.8-0.5,1.5-1.1,1.9-2c0.5-0.8,0.7-1.8,0.7-2.8c0-1-0.2-2-0.7-2.8
		c-0.5-0.8-1.1-1.5-1.9-2c-0.8-0.5-1.7-0.7-2.7-0.7c-1,0-1.9,0.2-2.8,0.7c-0.8,0.5-1.5,1.2-1.9,2c-0.5,0.8-0.7,1.8-0.7,2.8
		c0,1,0.2,2,0.7,2.8c0.5,0.8,1.1,1.5,1.9,2c0.8,0.5,1.7,0.7,2.8,0.7C1124.9,392.2,1125.8,392,1126.7,391.5z"/>
	<path class="st0" d="M1144.4,380.2c1.1,0.6,2,1.5,2.6,2.6c0.6,1.1,1,2.4,1,3.8v5.4c0,1.4-0.3,2.7-0.9,3.9c-0.6,1.2-1.5,2.1-2.6,2.7
		c-1.1,0.7-2.4,1-3.8,1c-1.4,0-2.6-0.3-3.6-0.8c-1.1-0.5-2-1.2-2.7-2.2c-0.2-0.2-0.2-0.4-0.2-0.6c0-0.3,0.1-0.5,0.4-0.7
		c0.2-0.1,0.4-0.2,0.6-0.2c0.2,0,0.3,0,0.5,0.1c0.2,0.1,0.3,0.2,0.4,0.3c0.5,0.7,1.2,1.2,2,1.6c0.8,0.4,1.7,0.6,2.8,0.6
		c1,0,1.9-0.2,2.7-0.7c0.8-0.5,1.4-1.2,1.9-2c0.5-0.9,0.7-1.9,0.7-3v-1.2c-0.5,1-1.3,1.8-2.3,2.4s-2.1,0.9-3.3,0.9
		c-1.4,0-2.6-0.3-3.7-0.9c-1.1-0.6-1.9-1.5-2.6-2.6c-0.6-1.1-0.9-2.4-0.9-3.8c0-1.4,0.3-2.7,1-3.8c0.6-1.1,1.5-2,2.6-2.6
		c1.1-0.6,2.4-0.9,3.8-0.9C1142,379.2,1143.3,379.6,1144.4,380.2z M1143.4,391.5c0.8-0.5,1.5-1.1,1.9-2c0.5-0.8,0.7-1.8,0.7-2.9
		c0-1.1-0.2-2-0.7-2.9c-0.5-0.8-1.1-1.5-1.9-2c-0.8-0.5-1.7-0.7-2.8-0.7c-1,0-2,0.2-2.8,0.7c-0.8,0.5-1.5,1.1-1.9,2
		c-0.5,0.8-0.7,1.8-0.7,2.9c0,1.1,0.2,2,0.7,2.9c0.5,0.8,1.1,1.5,1.9,2c0.8,0.5,1.7,0.7,2.8,0.7
		C1141.6,392.2,1142.5,392,1143.4,391.5z"/>
	<path class="st0" d="M1160.9,380.2c1,0.6,1.8,1.5,2.4,2.5c0.6,1.1,0.8,2.3,0.8,3.7c0,0.3-0.1,0.5-0.3,0.7c-0.2,0.2-0.4,0.3-0.7,0.3
		h-10.7c0.1,1.5,0.7,2.6,1.7,3.5c1,0.9,2.2,1.4,3.7,1.4c0.6,0,1.3-0.1,1.9-0.3c0.6-0.2,1.2-0.5,1.6-0.8c0.2-0.2,0.5-0.3,0.7-0.3
		c0.2,0,0.4,0.1,0.6,0.2c0.2,0.2,0.3,0.5,0.3,0.7c0,0.2-0.1,0.4-0.3,0.6c-0.6,0.5-1.3,0.9-2.2,1.2c-0.9,0.3-1.8,0.5-2.6,0.5
		c-1.4,0-2.7-0.3-3.8-0.9c-1.1-0.6-2-1.5-2.6-2.6c-0.6-1.1-0.9-2.4-0.9-3.8c0-1.4,0.3-2.7,0.9-3.8c0.6-1.1,1.4-2,2.5-2.6
		c1.1-0.6,2.3-0.9,3.6-0.9C1158.7,379.2,1159.9,379.5,1160.9,380.2z M1154,382.3c-0.9,0.8-1.4,1.9-1.6,3.3h9.7
		c-0.1-1.4-0.6-2.5-1.5-3.3c-0.9-0.8-1.9-1.3-3.3-1.3C1156,381.1,1154.9,381.5,1154,382.3z"/>
	<path class="st0" d="M1185.5,380c0.8,0.5,1.4,1.2,1.9,2.1c0.5,0.9,0.7,2,0.7,3.2v7.7c0,0.3-0.1,0.5-0.3,0.7
		c-0.2,0.2-0.4,0.3-0.7,0.3c-0.3,0-0.6-0.1-0.7-0.3c-0.2-0.2-0.3-0.4-0.3-0.7v-7.7c0-1.3-0.3-2.3-1-3c-0.6-0.7-1.5-1.1-2.5-1.1
		c-1.1,0-2,0.4-2.7,1.1c-0.7,0.7-1,1.7-1,2.9v0.1v7.7c0,0.3-0.1,0.5-0.3,0.7c-0.2,0.2-0.4,0.3-0.7,0.3s-0.5-0.1-0.7-0.3
		c-0.2-0.2-0.3-0.4-0.3-0.7v-7.7c0-1.3-0.3-2.3-1-3c-0.6-0.7-1.5-1.1-2.5-1.1c-1.1,0-2,0.4-2.7,1.1c-0.7,0.7-1.1,1.7-1.1,2.8v7.9
		c0,0.3-0.1,0.5-0.3,0.7s-0.4,0.3-0.7,0.3c-0.3,0-0.6-0.1-0.7-0.3c-0.2-0.2-0.3-0.4-0.3-0.7v-12.5c0-0.3,0.1-0.5,0.3-0.7
		c0.2-0.2,0.4-0.3,0.7-0.3c0.3,0,0.5,0.1,0.7,0.3c0.2,0.2,0.3,0.4,0.3,0.7v0.6c0.5-0.6,1.1-1,1.8-1.3c0.7-0.3,1.4-0.5,2.2-0.5
		c1,0,1.9,0.2,2.6,0.7c0.8,0.4,1.4,1.1,1.9,1.9c0.5-0.8,1.2-1.4,2-1.9c0.8-0.4,1.8-0.7,2.8-0.7
		C1183.7,379.2,1184.7,379.5,1185.5,380z"/>
	<path class="st0" d="M1029.1,374.6h3.1v-1.7h-5.1c-6.4,0-9,4-9,9v3.4c0,5,2.3,9,9,9h5.1v-1.7h-3.1c-8.9,0.4-9.1-3.4-9.1-7.7h12.2
		v-2H1020C1020,379.2,1019.1,374.6,1029.1,374.6z"/>
</g>
<g>
	
		<image style="overflow:visible;" width="922" height="871" xlink:href="B5E8909C9CCD76AE.png"  transform="matrix(0.24 0 0 0.24 840.2318 172.6268)">
	</image>
</g>
<path class="st1" d="M980.2,214c0,0-34.3-4.9-78.6,40.4c0,0-40.9,46.6-3.9,77.6c0,0,24.4,21.2,69.8-3c0,0,14.8-7.4,24.2-15.5
	c0,0,6.2-6.7-4.7-6.2c0,0-27.4,24.4-54.5,17.7c0,0-31.5-4.2-27.9-39.7h98.1c0,0,6.2-0.6,15-8.1C1017.7,277.3,1038.4,219.9,980.2,214
	z M1000.7,270H909c8.4-21,26.1-32.6,26.1-32.6c38.2-19.5,57.7,3,57.7,3C1005.1,254.9,1000.7,270,1000.7,270z"/>
<path class="st1" d="M980.2,215c0,0-34.3-4.9-78.6,40.4c0,0-40.9,46.6-3.9,77.6c0,0,24.4,21.2,69.8-3c0,0,14.8-7.4,24.2-15.5
	c0,0,6.2-6.7-4.7-6.2c0,0-27.4,24.4-54.5,17.7c0,0-31.5-4.2-27.9-39.7h98.1c0,0,6.2-0.6,15-8.1C1017.7,278.3,1038.4,220.9,980.2,215
	z M1000.7,271H909c8.4-21,26.1-32.6,26.1-32.6c38.2-19.5,57.7,3,57.7,3C1005.1,255.9,1000.7,271,1000.7,271z"/>
<path class="st2" d="M742,269.8h12.6v-12.9l33.6,12.9v-13.6l-19.2-6.3l-3.4-0.9H777c0,0,10.6-4.4,10.6-17.1c0,0,0-14.3-12.6-16H742
	v12.3l30.6-0.3c0,0,3.5,0.2,2.7,4.7c0,0,0.5,4.1-2.5,4.5h-19.5c0,0-11.2,0.6-11.2,13.3V269.8z"/>
<path class="st2" d="M804.6,227.6h29.2v-11.7h-33.9c0,0-17,7.3-7.9,26.3c0,0,0.8,0.8-0.1,1.7c0,0-10.4,17.3,7.9,25.8h33.9V258H804
	c-1.3,0-5.4-5.8-0.3-9.4h30.1V237h-29.2C803.8,236.1,799.6,231.8,804.6,227.6z"/>
<path class="st2" d="M1034.3,298.6h29.2v-11.7h-30.1c-0.1,0-0.3,0.1-0.4,0.1c-9.8-0.6-16.8,15.4-10.4,25.5c0,0,0.8,0.8-0.1,1.7
	c0,0-9,20.9,10.5,26.5h30.5V329h-29.8c-1.3,0-5.4-5.8-0.3-9.4h30.1v-11.7h-29.2C1033.5,307.1,1029.3,302.8,1034.3,298.6z"/>
<path class="st2" d="M835.3,215.9l12.9,0l13.6,41.3c0,0,1.3,2.8,2.6,0l13.1-41.3l13.1,0l-16.5,49.8c-1.4,4.1-17.3,7.1-22.2,0
	L835.3,215.9z"/>
<path class="st2" d="M1144.5,298.8h25.2v-11.8H1143c-12.2,0-15.7,10.5-16.4,15.6l-0.2,1.5v0.4c-0.1,1.6,0,2.6,0,2.6v32.5h11.8v-20.2
	h31.6v-11.8h-31.6v-4C1138.5,298.6,1144.3,298.9,1144.5,298.8z"/>
<path class="st2" d="M1109.5,286v43.6c0,0-5.4,1.3-6.7-10.7c0,0-2.8-27.1-16-31.9c-1.1-0.6-16.9-3.9-18.8,9l-0.1,43.6h12.2v-39.2
	c0,0,1.6-8.1,5.4,1.3l9.9,30.6c0,0,2.1,8.3,13.2,8.3c0,0,11.7-1,13-11.1V286H1109.5z"/>
<g>
	<path class="st3" d="M321.9,78.7c0.6-12-1.9-24-7.8-34.9C298.3,14.4,268.9,6.9,226.3,9H5.1v85.2h140.6c0,0.3,0,0.6,0,0.9
		c-0.5,10.3-0.1,72.2,76.4,67.1c1.6-0.1,3.1-0.2,4.6-0.4c7.2,0.5,15.7,0.6,25.6,0.4h212.1V78.7H321.9z"/>
	
		<image style="overflow:visible;" width="520" height="558" xlink:href="B5E8909C9CCD76AC.png"  transform="matrix(0.24 0 0 0.24 -18.268 -15.7733)">
	</image>
	
		<image style="overflow:visible;" width="513" height="550" xlink:href="4A9CE6A2A9B22521.png"  transform="matrix(0.24 0 0 0.24 29.012 -15.5333)">
	</image>
	
		<image style="overflow:visible;" width="508" height="550" xlink:href="4A9CE6A2A9B22527.png"  transform="matrix(0.24 0 0 0.24 259.892 55.2667)">
	</image>
	
		<image style="overflow:visible;" width="567" height="551" xlink:href="4A9CE6A2A9B22520.png"  transform="matrix(0.24 0 0 0.24 73.892 -15.5333)">
	</image>
	
		<image style="overflow:visible;" width="508" height="545" xlink:href="4A9CE6A2A9B22523.png"  transform="matrix(0.24 0 0 0.24 365.972 55.5067)">
	</image>
	
		<image style="overflow:visible;" width="550" height="553" xlink:href="4A9CE6A2A9B2253F.png"  transform="matrix(0.24 0 0 0.24 307.652 54.5467)">
	</image>
	<g>
		<g>
			<path class="st0" d="M16.6,181.6c1.2,0.7,2.2,1.7,2.9,2.9c0.7,1.2,1.1,2.6,1.1,4.1s-0.3,2.9-1,4.1c-0.7,1.2-1.6,2.2-2.8,2.9
				c-1.2,0.7-2.5,1.1-4,1.1c-1.3,0-2.4-0.3-3.4-0.8c-1-0.5-1.9-1.3-2.6-2.2v8.5c0,0.3-0.1,0.6-0.3,0.8c-0.2,0.2-0.5,0.3-0.8,0.3
				c-0.3,0-0.6-0.1-0.8-0.3c-0.2-0.2-0.3-0.5-0.3-0.8v-6.5c0-0.1,0-0.1,0-0.3v-6.8c0-1.5,0.4-2.9,1.1-4.1c0.7-1.2,1.7-2.2,2.9-2.9
				c1.2-0.7,2.6-1.1,4.1-1.1S15.4,180.9,16.6,181.6z M15.5,193.9c0.9-0.5,1.6-1.2,2.1-2.2c0.5-0.9,0.8-1.9,0.8-3.1
				c0-1.1-0.3-2.2-0.8-3.1c-0.5-0.9-1.2-1.6-2.1-2.2c-0.9-0.5-1.9-0.8-3-0.8s-2.1,0.3-3,0.8c-0.9,0.5-1.6,1.3-2.1,2.2
				c-0.5,0.9-0.8,1.9-0.8,3.1c0,0.3,0,0.6,0,0.7c0,0,0,0.1,0,0.1c0.2,1.5,0.8,2.7,1.9,3.7c1.1,1,2.4,1.4,3.9,1.4
				C13.6,194.7,14.6,194.4,15.5,193.9z"/>
		</g>
		<g>
			<path class="st0" d="M26.1,200.7c-1.1-0.6-2-1.5-2.6-2.6c-0.6-1.1-1-2.4-1-3.8c0-1.4,0.3-2.7,1-3.8c0.6-1.1,1.5-2,2.6-2.7
				c1.1-0.6,2.4-1,3.8-1c1.4,0,2.7,0.3,3.8,1c1.1,0.6,2,1.5,2.6,2.7c0.6,1.1,1,2.4,1,3.8c0,1.4-0.3,2.7-1,3.8
				c-0.6,1.1-1.5,2-2.6,2.6c-1.1,0.6-2.4,1-3.8,1C28.5,201.6,27.2,201.3,26.1,200.7z M32.7,199.1c0.8-0.5,1.5-1.1,1.9-2
				c0.5-0.8,0.7-1.8,0.7-2.8c0-1.1-0.2-2-0.7-2.9c-0.5-0.8-1.1-1.5-1.9-2s-1.7-0.7-2.8-0.7c-1,0-1.9,0.2-2.8,0.7
				c-0.8,0.5-1.5,1.1-1.9,2c-0.5,0.8-0.7,1.8-0.7,2.9c0,1,0.2,2,0.7,2.8c0.5,0.8,1.1,1.5,1.9,2c0.8,0.5,1.7,0.7,2.8,0.7
				C30.9,199.8,31.9,199.5,32.7,199.1z"/>
		</g>
		<g>
			<path class="st0" d="M47.5,187.1c0.4,0.2,0.7,0.5,0.7,0.8c0,0.1,0,0.2,0,0.2c-0.1,0.2-0.2,0.4-0.3,0.5c-0.2,0.1-0.4,0.1-0.6,0.1
				c-0.2,0-0.4,0-0.8-0.1c-0.1,0-0.4,0-0.6,0c-1.3,0-2.4,0.4-3.3,1.1c-0.8,0.7-1.3,1.6-1.3,2.8v8c0,0.3-0.1,0.6-0.3,0.7
				c-0.2,0.2-0.4,0.3-0.7,0.3c-0.3,0-0.6-0.1-0.7-0.3c-0.2-0.2-0.3-0.4-0.3-0.7V188c0-0.3,0.1-0.6,0.3-0.7c0.2-0.2,0.4-0.3,0.7-0.3
				c0.3,0,0.6,0.1,0.7,0.3c0.2,0.2,0.3,0.4,0.3,0.7v1.2c0.5-0.7,1.2-1.3,2-1.7c0.8-0.4,1.7-0.6,2.6-0.6
				C46.5,186.8,47,186.9,47.5,187.1z"/>
		</g>
		<g>
			<path class="st0" d="M61.1,199.7c0.2,0.2,0.3,0.4,0.3,0.7c0,0.3-0.1,0.5-0.3,0.7c-0.2,0.2-0.5,0.3-0.8,0.3h-0.6
				c-0.9,0-1.8-0.2-2.5-0.7c-0.7-0.5-1.3-1.1-1.7-1.8c-0.4-0.8-0.6-1.6-0.6-2.6v-7.1h-1.7c-0.3,0-0.5-0.1-0.7-0.3
				c-0.2-0.2-0.3-0.4-0.3-0.6c0-0.3,0.1-0.5,0.3-0.7c0.2-0.2,0.4-0.3,0.7-0.3h1.7v-4.1c0-0.3,0.1-0.6,0.3-0.7
				c0.2-0.2,0.4-0.3,0.7-0.3c0.3,0,0.5,0.1,0.7,0.3c0.2,0.2,0.3,0.4,0.3,0.7v4.1h3c0.3,0,0.5,0.1,0.7,0.3c0.2,0.2,0.3,0.4,0.3,0.7
				c0,0.2-0.1,0.5-0.3,0.6c-0.2,0.2-0.4,0.3-0.7,0.3h-3v7.1c0,0.9,0.3,1.6,0.8,2.2c0.5,0.6,1.2,0.9,2,0.9h0.7
				C60.7,199.5,60.9,199.6,61.1,199.7z"/>
		</g>
		<g>
			<path class="st0" d="M74,187.8c1.1,0.6,2,1.5,2.7,2.7c0.6,1.1,1,2.4,1,3.8v6.3c0,0.3-0.1,0.5-0.3,0.7c-0.2,0.2-0.4,0.3-0.7,0.3
				s-0.5-0.1-0.7-0.3c-0.2-0.2-0.3-0.4-0.3-0.7v-1.6c-0.6,0.9-1.4,1.5-2.4,2c-1,0.5-2,0.7-3.2,0.7c-1.3,0-2.6-0.3-3.7-1
				c-1.1-0.6-2-1.5-2.6-2.7c-0.6-1.1-0.9-2.4-0.9-3.8c0-1.4,0.3-2.6,1-3.8c0.6-1.1,1.5-2,2.7-2.7c1.1-0.6,2.4-1,3.8-1
				S72.9,187.1,74,187.8z M73,199.1c0.8-0.5,1.5-1.1,1.9-2c0.5-0.8,0.7-1.8,0.7-2.8c0-1-0.2-2-0.7-2.8c-0.5-0.8-1.1-1.5-1.9-2
				c-0.8-0.5-1.7-0.7-2.7-0.7c-1,0-1.9,0.2-2.8,0.7c-0.8,0.5-1.5,1.2-1.9,2c-0.5,0.8-0.7,1.8-0.7,2.8c0,1,0.2,2,0.7,2.8
				c0.5,0.8,1.1,1.5,1.9,2c0.8,0.5,1.7,0.7,2.8,0.7C71.2,199.8,72.1,199.5,73,199.1z"/>
		</g>
		<g>
			<path class="st0" d="M80.4,200.2c-0.7-0.9-1-2-1-3.3v-15.2c0-0.3,0.1-0.5,0.3-0.7c0.2-0.2,0.4-0.3,0.7-0.3c0.3,0,0.5,0.1,0.7,0.3
				c0.2,0.2,0.3,0.4,0.3,0.7v15.2c0,0.8,0.2,1.4,0.5,1.9c0.3,0.5,0.7,0.7,1.2,0.7h0.7c0.3,0,0.5,0.1,0.6,0.3
				c0.2,0.2,0.2,0.4,0.2,0.7c0,0.3-0.1,0.5-0.3,0.7s-0.5,0.3-0.9,0.3h-0.3C82,201.5,81.1,201.1,80.4,200.2z"/>
		</g>
		<g>
			<path class="st0" d="M108.9,188v6.3c0,1.4-0.3,2.6-1,3.8c-0.6,1.1-1.5,2-2.7,2.7c-1.1,0.6-2.4,1-3.8,1s-2.6-0.3-3.8-1
				c-1.1-0.6-2-1.5-2.7-2.7c-0.6-1.1-1-2.4-1-3.8c0-1.4,0.3-2.6,0.9-3.8c0.6-1.1,1.5-2,2.6-2.7c1.1-0.6,2.3-1,3.7-1
				c1.2,0,2.2,0.2,3.2,0.7c1,0.5,1.7,1.2,2.4,2v-7.8c0-0.3,0.1-0.6,0.3-0.7c0.2-0.2,0.4-0.3,0.7-0.3s0.5,0.1,0.7,0.3
				s0.3,0.4,0.3,0.7v6C108.9,187.8,108.9,187.9,108.9,188z M104.2,199c0.8-0.5,1.5-1.2,1.9-2c0.5-0.8,0.7-1.8,0.7-2.8
				c0-0.3,0-0.5,0-0.7c0,0,0-0.1,0-0.1c-0.2-1.4-0.8-2.5-1.7-3.4s-2.2-1.3-3.6-1.3c-1,0-1.9,0.2-2.8,0.7c-0.8,0.5-1.5,1.1-1.9,2
				c-0.5,0.8-0.7,1.8-0.7,2.8c0,1,0.2,2,0.7,2.8c0.5,0.8,1.1,1.5,1.9,2c0.8,0.5,1.7,0.7,2.8,0.7C102.5,199.8,103.4,199.5,104.2,199z
				"/>
		</g>
		<g>
			<path class="st0" d="M122.1,187.7c1,0.6,1.8,1.5,2.4,2.5s0.8,2.3,0.8,3.7c0,0.3-0.1,0.5-0.3,0.7c-0.2,0.2-0.4,0.3-0.7,0.3h-10.7
				c0.1,1.5,0.7,2.6,1.7,3.5c1,0.9,2.2,1.4,3.7,1.4c0.6,0,1.3-0.1,1.9-0.3c0.6-0.2,1.2-0.5,1.6-0.8c0.2-0.2,0.5-0.3,0.7-0.3
				c0.2,0,0.4,0.1,0.6,0.2c0.2,0.2,0.3,0.5,0.3,0.7c0,0.2-0.1,0.4-0.3,0.6c-0.6,0.5-1.3,0.9-2.2,1.2c-0.9,0.3-1.8,0.5-2.6,0.5
				c-1.4,0-2.7-0.3-3.8-0.9c-1.1-0.6-2-1.5-2.6-2.6c-0.6-1.1-0.9-2.4-0.9-3.8c0-1.4,0.3-2.7,0.9-3.8c0.6-1.1,1.4-2,2.5-2.6
				c1.1-0.6,2.3-0.9,3.6-0.9C120,186.8,121.1,187.1,122.1,187.7z M115.3,189.9c-0.9,0.8-1.4,1.9-1.6,3.3h9.7
				c-0.1-1.4-0.6-2.5-1.5-3.3c-0.9-0.8-1.9-1.3-3.3-1.3C117.3,188.7,116.2,189.1,115.3,189.9z"/>
		</g>
		<g>
			<path class="st0" d="M151.3,200.6c0,0.3-0.1,0.5-0.3,0.6c-0.2,0.2-0.5,0.2-0.8,0.2c-0.2,0-0.4,0-0.5-0.1
				c-0.1-0.1-0.3-0.2-0.4-0.4l-4.8-7.6h-0.5h-3.9v7.1c0,0.3-0.1,0.5-0.3,0.7c-0.2,0.2-0.4,0.3-0.7,0.3c-0.3,0-0.5-0.1-0.7-0.3
				c-0.2-0.2-0.3-0.4-0.3-0.7v-15.6c0-0.3,1-4.3,5.7-4.3c1.7,0,2.8,0.4,3.8,1c1,0.5,1.8,1.3,2.4,2.3c0.6,1,0.9,2.1,0.9,3.3
				c0,1.4-0.4,2.6-1.1,3.6s-1.7,1.8-3,2.2l4.4,7C151.2,200.2,151.3,200.4,151.3,200.6z M144.1,191.4c0.9,0,1.7-0.2,2.4-0.5
				c0.7-0.4,1.3-0.9,1.7-1.5c0.4-0.6,0.6-1.4,0.6-2.2c0-0.9-0.2-1.6-0.6-2.3c-0.4-0.7-1-1.2-1.7-1.6c-0.7-0.4-1.5-0.6-2.4-0.6
				c-1.7,0-3.8,0.8-4,2c-0.3,1.6,0,6.6,0,6.6H144.1z"/>
		</g>
		<g>
			<path class="st0" d="M165,187.7c1,0.6,1.8,1.5,2.4,2.5s0.8,2.3,0.8,3.7c0,0.3-0.1,0.5-0.3,0.7c-0.2,0.2-0.4,0.3-0.7,0.3h-10.7
				c0.1,1.5,0.7,2.6,1.7,3.5c1,0.9,2.2,1.4,3.7,1.4c0.6,0,1.3-0.1,1.9-0.3c0.6-0.2,1.2-0.5,1.6-0.8c0.2-0.2,0.5-0.3,0.7-0.3
				c0.2,0,0.4,0.1,0.6,0.2c0.2,0.2,0.3,0.5,0.3,0.7c0,0.2-0.1,0.4-0.3,0.6c-0.6,0.5-1.3,0.9-2.2,1.2c-0.9,0.3-1.8,0.5-2.6,0.5
				c-1.4,0-2.7-0.3-3.8-0.9c-1.1-0.6-2-1.5-2.6-2.6c-0.6-1.1-0.9-2.4-0.9-3.8c0-1.4,0.3-2.7,0.9-3.8c0.6-1.1,1.4-2,2.5-2.6
				c1.1-0.6,2.3-0.9,3.6-0.9C162.8,186.8,164,187.1,165,187.7z M158.1,189.9c-0.9,0.8-1.4,1.9-1.6,3.3h9.7c-0.1-1.4-0.6-2.5-1.5-3.3
				c-0.9-0.8-1.9-1.3-3.3-1.3C160.1,188.7,159,189.1,158.1,189.9z"/>
		</g>
		<g>
			<path class="st0" d="M184.8,187.9c0,0.1,0,0.2-0.1,0.4l-5.8,12.6c-0.2,0.5-0.6,0.7-1,0.7c-0.4,0-0.7-0.2-1-0.7l-5.9-12.5
				c-0.1-0.1-0.1-0.2-0.1-0.4c0-0.4,0.2-0.7,0.6-0.9c0.1-0.1,0.3-0.1,0.4-0.1c0.2,0,0.3,0,0.5,0.1c0.2,0.1,0.3,0.2,0.3,0.4l5.1,11.1
				l5.1-11.1c0.1-0.2,0.2-0.3,0.3-0.4c0.2-0.1,0.3-0.1,0.5-0.1c0.2,0,0.3,0,0.4,0.1C184.7,187.2,184.8,187.5,184.8,187.9z"/>
		</g>
		<g>
			<path class="st0" d="M186.6,183.8c-0.3-0.3-0.4-0.6-0.4-1c0-0.4,0.1-0.8,0.4-1c0.3-0.3,0.6-0.4,1-0.4c0.4,0,0.7,0.1,1,0.4
				c0.3,0.3,0.4,0.6,0.4,1c0,0.4-0.1,0.8-0.4,1c-0.3,0.3-0.6,0.4-1,0.4C187.2,184.2,186.9,184,186.6,183.8z M186.9,201.2
				c-0.2-0.2-0.3-0.4-0.3-0.7V188c0-0.3,0.1-0.5,0.3-0.7c0.2-0.2,0.4-0.3,0.7-0.3c0.3,0,0.5,0.1,0.7,0.3c0.2,0.2,0.3,0.4,0.3,0.7
				v12.5c0,0.3-0.1,0.5-0.3,0.7c-0.2,0.2-0.4,0.3-0.7,0.3C187.3,201.5,187.1,201.4,186.9,201.2z"/>
		</g>
		<g>
			<path class="st0" d="M194.4,201.1c-1-0.4-1.8-0.9-2.4-1.6c-0.2-0.2-0.3-0.4-0.3-0.6c0-0.3,0.1-0.6,0.4-0.8
				c0.2-0.2,0.4-0.2,0.7-0.2c0.3,0,0.6,0.1,0.8,0.4c0.4,0.5,1,0.9,1.7,1.1c0.7,0.3,1.5,0.4,2.3,0.4c1.2,0,2.2-0.2,2.8-0.6
				c0.6-0.4,0.9-1,1-1.7c0-0.6-0.3-1.2-0.9-1.6c-0.6-0.4-1.6-0.7-3-1c-1.7-0.3-3-0.8-3.9-1.5c-0.9-0.7-1.3-1.5-1.3-2.5
				c0-1.3,0.5-2.3,1.5-3c1-0.7,2.3-1.1,3.8-1.1c1.2,0,2.2,0.2,3.1,0.6c0.9,0.4,1.6,1,2.1,1.7c0.1,0.2,0.2,0.4,0.2,0.6
				c0,0.3-0.1,0.5-0.4,0.7c-0.1,0.1-0.3,0.1-0.5,0.1c-0.4,0-0.7-0.1-0.9-0.4c-0.9-1-2.1-1.5-3.6-1.5c-1,0-1.8,0.2-2.3,0.6
				c-0.6,0.4-0.9,0.9-0.9,1.5c0,0.6,0.3,1.1,0.8,1.5c0.5,0.4,1.5,0.7,2.9,0.9c1.9,0.3,3.3,0.8,4.1,1.6c0.8,0.7,1.2,1.6,1.2,2.7
				c0,0.8-0.2,1.5-0.7,2.2c-0.5,0.6-1.2,1.1-2,1.5c-0.9,0.4-1.9,0.5-3,0.5C196.4,201.6,195.4,201.5,194.4,201.1z"/>
		</g>
		<g>
			<path class="st0" d="M212.4,199.7c0.2,0.2,0.3,0.4,0.3,0.7c0,0.3-0.1,0.5-0.3,0.7c-0.2,0.2-0.5,0.3-0.8,0.3H211
				c-0.9,0-1.8-0.2-2.5-0.7c-0.7-0.5-1.3-1.1-1.7-1.8c-0.4-0.8-0.6-1.6-0.6-2.6v-7.1h-1.7c-0.3,0-0.5-0.1-0.7-0.3
				c-0.2-0.2-0.3-0.4-0.3-0.6c0-0.3,0.1-0.5,0.3-0.7c0.2-0.2,0.4-0.3,0.7-0.3h1.7v-4.1c0-0.3,0.1-0.6,0.3-0.7
				c0.2-0.2,0.4-0.3,0.7-0.3c0.3,0,0.5,0.1,0.7,0.3c0.2,0.2,0.3,0.4,0.3,0.7v4.1h3c0.3,0,0.5,0.1,0.7,0.3c0.2,0.2,0.3,0.4,0.3,0.7
				c0,0.2-0.1,0.5-0.3,0.6c-0.2,0.2-0.4,0.3-0.7,0.3h-3v7.1c0,0.9,0.3,1.6,0.8,2.2c0.5,0.6,1.2,0.9,2,0.9h0.7
				C212,199.5,212.2,199.6,212.4,199.7z"/>
		</g>
		<g>
			<path class="st0" d="M224.7,187.8c1.1,0.6,2,1.5,2.7,2.7c0.6,1.1,1,2.4,1,3.8v6.3c0,0.3-0.1,0.5-0.3,0.7
				c-0.2,0.2-0.4,0.3-0.7,0.3c-0.3,0-0.5-0.1-0.7-0.3c-0.2-0.2-0.3-0.4-0.3-0.7v-1.6c-0.6,0.9-1.4,1.5-2.4,2c-1,0.5-2,0.7-3.2,0.7
				c-1.3,0-2.6-0.3-3.7-1c-1.1-0.6-2-1.5-2.6-2.7c-0.6-1.1-0.9-2.4-0.9-3.8c0-1.4,0.3-2.6,1-3.8c0.6-1.1,1.5-2,2.7-2.7
				c1.1-0.6,2.4-1,3.8-1S223.6,187.1,224.7,187.8z M223.7,199.1c0.8-0.5,1.5-1.1,1.9-2c0.5-0.8,0.7-1.8,0.7-2.8c0-1-0.2-2-0.7-2.8
				c-0.5-0.8-1.1-1.5-1.9-2c-0.8-0.5-1.7-0.7-2.7-0.7s-1.9,0.2-2.8,0.7c-0.8,0.5-1.5,1.2-1.9,2c-0.5,0.8-0.7,1.8-0.7,2.8
				c0,1,0.2,2,0.7,2.8c0.5,0.8,1.1,1.5,1.9,2c0.8,0.5,1.7,0.7,2.8,0.7S222.9,199.5,223.7,199.1z"/>
		</g>
		<g>
			<path class="st0" d="M233.4,201.1c-1-0.4-1.8-0.9-2.4-1.6c-0.2-0.2-0.3-0.4-0.3-0.6c0-0.3,0.1-0.6,0.4-0.8
				c0.2-0.2,0.4-0.2,0.7-0.2c0.3,0,0.6,0.1,0.8,0.4c0.4,0.5,1,0.9,1.7,1.1c0.7,0.3,1.5,0.4,2.3,0.4c1.2,0,2.2-0.2,2.8-0.6
				c0.6-0.4,0.9-1,1-1.7c0-0.6-0.3-1.2-0.9-1.6c-0.6-0.4-1.6-0.7-3-1c-1.7-0.3-3-0.8-3.9-1.5c-0.9-0.7-1.3-1.5-1.3-2.5
				c0-1.3,0.5-2.3,1.5-3c1-0.7,2.3-1.1,3.8-1.1c1.2,0,2.2,0.2,3.1,0.6c0.9,0.4,1.6,1,2.1,1.7c0.1,0.2,0.2,0.4,0.2,0.6
				c0,0.3-0.1,0.5-0.4,0.7c-0.1,0.1-0.3,0.1-0.5,0.1c-0.4,0-0.7-0.1-0.9-0.4c-0.9-1-2.1-1.5-3.6-1.5c-1,0-1.8,0.2-2.3,0.6
				c-0.6,0.4-0.9,0.9-0.9,1.5c0,0.6,0.3,1.1,0.8,1.5c0.5,0.4,1.5,0.7,2.9,0.9c1.9,0.3,3.3,0.8,4.1,1.6c0.8,0.7,1.2,1.6,1.2,2.7
				c0,0.8-0.2,1.5-0.7,2.2c-0.5,0.6-1.2,1.1-2,1.5c-0.9,0.4-1.9,0.5-3,0.5C235.5,201.6,234.4,201.5,233.4,201.1z"/>
		</g>
		<g>
			<path class="st0" d="M268.9,188v6.3c0,1.4-0.3,2.6-1,3.8s-1.5,2-2.7,2.7c-1.1,0.6-2.4,1-3.8,1s-2.6-0.3-3.8-1
				c-1.1-0.6-2-1.5-2.7-2.7s-1-2.4-1-3.8c0-1.4,0.3-2.6,0.9-3.8c0.6-1.1,1.5-2,2.6-2.7c1.1-0.6,2.3-1,3.7-1c1.2,0,2.2,0.2,3.2,0.7
				c1,0.5,1.7,1.2,2.4,2v-7.8c0-0.3,0.1-0.6,0.3-0.7s0.4-0.3,0.7-0.3c0.3,0,0.5,0.1,0.7,0.3s0.3,0.4,0.3,0.7v6
				C268.9,187.8,268.9,187.9,268.9,188z M264.2,199c0.8-0.5,1.5-1.2,1.9-2c0.5-0.8,0.7-1.8,0.7-2.8c0-0.3,0-0.5,0-0.7
				c0,0,0-0.1,0-0.1c-0.2-1.4-0.8-2.5-1.7-3.4c-1-0.9-2.2-1.3-3.6-1.3c-1,0-1.9,0.2-2.8,0.7c-0.8,0.5-1.5,1.1-1.9,2
				c-0.5,0.8-0.7,1.8-0.7,2.8c0,1,0.2,2,0.7,2.8c0.5,0.8,1.1,1.5,1.9,2c0.8,0.5,1.7,0.7,2.8,0.7C262.5,199.8,263.4,199.5,264.2,199z
				"/>
		</g>
		<g>
			<path class="st0" d="M282.1,187.7c1,0.6,1.8,1.5,2.4,2.5c0.6,1.1,0.8,2.3,0.8,3.7c0,0.3-0.1,0.5-0.3,0.7
				c-0.2,0.2-0.4,0.3-0.7,0.3h-10.7c0.1,1.5,0.7,2.6,1.7,3.5c1,0.9,2.2,1.4,3.7,1.4c0.6,0,1.3-0.1,1.9-0.3c0.6-0.2,1.2-0.5,1.6-0.8
				c0.2-0.2,0.5-0.3,0.7-0.3c0.2,0,0.4,0.1,0.6,0.2c0.2,0.2,0.3,0.5,0.3,0.7c0,0.2-0.1,0.4-0.3,0.6c-0.6,0.5-1.3,0.9-2.2,1.2
				c-0.9,0.3-1.8,0.5-2.6,0.5c-1.4,0-2.7-0.3-3.8-0.9c-1.1-0.6-2-1.5-2.6-2.6c-0.6-1.1-0.9-2.4-0.9-3.8c0-1.4,0.3-2.7,0.9-3.8
				c0.6-1.1,1.4-2,2.5-2.6c1.1-0.6,2.3-0.9,3.6-0.9C279.9,186.8,281.1,187.1,282.1,187.7z M275.3,189.9c-0.9,0.8-1.4,1.9-1.6,3.3
				h9.7c-0.1-1.4-0.6-2.5-1.5-3.3c-0.9-0.8-1.9-1.3-3.3-1.3C277.3,188.7,276.1,189.1,275.3,189.9z"/>
		</g>
		<g>
			<path class="st0" d="M324.5,187.6c1,0.5,1.8,1.3,2.4,2.3c0.6,1,0.9,2.2,0.9,3.7v6.9c0,0.3-0.1,0.5-0.3,0.7
				c-0.2,0.2-0.4,0.3-0.7,0.3c-0.3,0-0.6-0.1-0.7-0.3c-0.2-0.2-0.3-0.4-0.3-0.7v-6.9c0-1.6-0.4-2.8-1.3-3.6c-0.9-0.8-2-1.2-3.4-1.2
				c-0.9,0-1.7,0.2-2.4,0.5c-0.7,0.3-1.3,0.8-1.7,1.4c-0.4,0.6-0.6,1.3-0.6,2v7.9c0,0.3-0.1,0.5-0.3,0.7s-0.4,0.3-0.7,0.3
				c-0.3,0-0.6-0.1-0.7-0.3c-0.2-0.2-0.3-0.4-0.3-0.7V188c0-0.3,0.1-0.5,0.3-0.7c0.2-0.2,0.4-0.3,0.7-0.3c0.3,0,0.5,0.1,0.7,0.3
				c0.2,0.2,0.3,0.4,0.3,0.7v0.9c0.6-0.7,1.3-1.2,2.1-1.5c0.8-0.4,1.7-0.6,2.7-0.6C322.4,186.8,323.5,187.1,324.5,187.6z"/>
		</g>
		<g>
			<path class="st0" d="M334.9,184.6c-0.6,0.8-0.9,1.8-0.9,3.1v0.6h3.2c0.3,0,0.5,0.1,0.7,0.3c0.2,0.2,0.3,0.4,0.3,0.7
				c0,0.2-0.1,0.5-0.3,0.6c-0.2,0.2-0.4,0.3-0.7,0.3H334v11.2c0,0.3-0.1,0.6-0.3,0.8c-0.2,0.2-0.4,0.3-0.8,0.3
				c-0.3,0-0.5-0.1-0.7-0.3s-0.3-0.4-0.3-0.8v-11.2h-1.7c-0.3,0-0.5-0.1-0.7-0.3c-0.2-0.2-0.3-0.4-0.3-0.6c0-0.3,0.1-0.5,0.3-0.7
				c0.2-0.2,0.4-0.3,0.7-0.3h1.7v-0.5c0-1.9,0.5-3.4,1.5-4.5c1-1.1,2.4-1.7,4.1-1.7c0.3,0,0.5,0.1,0.7,0.3c0.2,0.2,0.3,0.4,0.3,0.7
				s-0.1,0.5-0.3,0.7c-0.2,0.2-0.4,0.3-0.7,0.3C336.4,183.4,335.5,183.8,334.9,184.6z"/>
		</g>
		<g>
			<path class="st0" d="M351.2,187.7c1,0.6,1.8,1.5,2.4,2.5c0.6,1.1,0.8,2.3,0.8,3.7c0,0.3-0.1,0.5-0.3,0.7
				c-0.2,0.2-0.4,0.3-0.7,0.3h-10.7c0.1,1.5,0.7,2.6,1.7,3.5c1,0.9,2.2,1.4,3.7,1.4c0.6,0,1.3-0.1,1.9-0.3c0.6-0.2,1.2-0.5,1.6-0.8
				c0.2-0.2,0.5-0.3,0.7-0.3c0.2,0,0.4,0.1,0.6,0.2c0.2,0.2,0.3,0.5,0.3,0.7c0,0.2-0.1,0.4-0.3,0.6c-0.6,0.5-1.3,0.9-2.2,1.2
				c-0.9,0.3-1.8,0.5-2.6,0.5c-1.4,0-2.7-0.3-3.8-0.9c-1.1-0.6-2-1.5-2.6-2.6c-0.6-1.1-0.9-2.4-0.9-3.8c0-1.4,0.3-2.7,0.9-3.8
				c0.6-1.1,1.4-2,2.5-2.6c1.1-0.6,2.3-0.9,3.6-0.9C349,186.8,350.2,187.1,351.2,187.7z M344.3,189.9c-0.9,0.8-1.4,1.9-1.6,3.3h9.7
				c-0.1-1.4-0.6-2.5-1.5-3.3c-0.9-0.8-1.9-1.3-3.3-1.3C346.3,188.7,345.2,189.1,344.3,189.9z"/>
		</g>
		<g>
			<path class="st0" d="M368,187.1c0.4,0.2,0.7,0.5,0.7,0.8c0,0.1,0,0.2,0,0.2c-0.1,0.2-0.2,0.4-0.3,0.5c-0.2,0.1-0.4,0.1-0.6,0.1
				c-0.2,0-0.4,0-0.8-0.1c-0.1,0-0.4,0-0.6,0c-1.3,0-2.4,0.4-3.3,1.1c-0.8,0.7-1.3,1.6-1.3,2.8v8c0,0.3-0.1,0.6-0.3,0.7
				c-0.2,0.2-0.4,0.3-0.7,0.3c-0.3,0-0.6-0.1-0.7-0.3c-0.2-0.2-0.3-0.4-0.3-0.7V188c0-0.3,0.1-0.6,0.3-0.7c0.2-0.2,0.4-0.3,0.7-0.3
				c0.3,0,0.6,0.1,0.7,0.3c0.2,0.2,0.3,0.4,0.3,0.7v1.2c0.5-0.7,1.2-1.3,2-1.7c0.8-0.4,1.7-0.6,2.6-0.6
				C366.9,186.8,367.5,186.9,368,187.1z"/>
		</g>
		<g>
			<path class="st0" d="M389.5,187.5c0.8,0.5,1.4,1.2,1.9,2.1c0.5,0.9,0.7,2,0.7,3.2v7.7c0,0.3-0.1,0.5-0.3,0.7
				c-0.2,0.2-0.4,0.3-0.7,0.3c-0.3,0-0.6-0.1-0.7-0.3s-0.3-0.4-0.3-0.7v-7.7c0-1.3-0.3-2.3-1-3c-0.6-0.7-1.5-1.1-2.5-1.1
				c-1.1,0-2,0.4-2.7,1.1c-0.7,0.7-1,1.7-1,2.9v0.1v7.7c0,0.3-0.1,0.5-0.3,0.7c-0.2,0.2-0.4,0.3-0.7,0.3c-0.3,0-0.5-0.1-0.7-0.3
				c-0.2-0.2-0.3-0.4-0.3-0.7v-7.7c0-1.3-0.3-2.3-1-3c-0.6-0.7-1.5-1.1-2.5-1.1c-1.1,0-2,0.4-2.7,1.1c-0.7,0.7-1.1,1.7-1.1,2.8v7.9
				c0,0.3-0.1,0.5-0.3,0.7s-0.4,0.3-0.7,0.3c-0.3,0-0.6-0.1-0.7-0.3s-0.3-0.4-0.3-0.7V188c0-0.3,0.1-0.5,0.3-0.7
				c0.2-0.2,0.4-0.3,0.7-0.3c0.3,0,0.5,0.1,0.7,0.3c0.2,0.2,0.3,0.4,0.3,0.7v0.6c0.5-0.6,1.1-1,1.8-1.3c0.7-0.3,1.4-0.5,2.2-0.5
				c1,0,1.9,0.2,2.6,0.7c0.8,0.4,1.4,1.1,1.9,1.9c0.5-0.8,1.2-1.4,2-1.9c0.8-0.4,1.8-0.7,2.8-0.7C387.8,186.8,388.7,187,389.5,187.5
				z"/>
		</g>
		<g>
			<path class="st0" d="M405.6,187.8c1.1,0.6,2,1.5,2.7,2.7c0.6,1.1,1,2.4,1,3.8v6.3c0,0.3-0.1,0.5-0.3,0.7
				c-0.2,0.2-0.4,0.3-0.7,0.3c-0.3,0-0.6-0.1-0.7-0.3s-0.3-0.4-0.3-0.7v-1.6c-0.6,0.9-1.4,1.5-2.4,2s-2,0.7-3.2,0.7
				c-1.3,0-2.6-0.3-3.7-1c-1.1-0.6-2-1.5-2.6-2.7c-0.6-1.1-0.9-2.4-0.9-3.8c0-1.4,0.3-2.6,1-3.8c0.6-1.1,1.5-2,2.7-2.7
				c1.1-0.6,2.4-1,3.8-1C403.2,186.8,404.5,187.1,405.6,187.8z M404.6,199.1c0.8-0.5,1.5-1.1,1.9-2c0.5-0.8,0.7-1.8,0.7-2.8
				c0-1-0.2-2-0.7-2.8c-0.5-0.8-1.1-1.5-1.9-2c-0.8-0.5-1.7-0.7-2.7-0.7c-1,0-1.9,0.2-2.8,0.7c-0.8,0.5-1.5,1.2-1.9,2
				c-0.5,0.8-0.7,1.8-0.7,2.8c0,1,0.2,2,0.7,2.8c0.5,0.8,1.1,1.5,1.9,2c0.8,0.5,1.7,0.7,2.8,0.7
				C402.8,199.8,403.8,199.5,404.6,199.1z"/>
		</g>
		<g>
			<path class="st0" d="M422.3,187.8c1.1,0.6,2,1.5,2.6,2.6c0.6,1.1,1,2.4,1,3.8v5.4c0,1.4-0.3,2.7-0.9,3.9
				c-0.6,1.2-1.5,2.1-2.6,2.7c-1.1,0.7-2.4,1-3.8,1c-1.4,0-2.6-0.3-3.6-0.8c-1.1-0.5-2-1.2-2.7-2.2c-0.2-0.2-0.2-0.4-0.2-0.6
				c0-0.3,0.1-0.5,0.4-0.7c0.2-0.1,0.4-0.2,0.6-0.2c0.2,0,0.3,0,0.5,0.1c0.2,0.1,0.3,0.2,0.4,0.3c0.5,0.7,1.2,1.2,2,1.6
				c0.8,0.4,1.7,0.6,2.8,0.6c1,0,1.9-0.2,2.7-0.7c0.8-0.5,1.4-1.2,1.9-2c0.5-0.9,0.7-1.9,0.7-3v-1.2c-0.5,1-1.3,1.8-2.3,2.4
				c-1,0.6-2.1,0.9-3.3,0.9c-1.4,0-2.6-0.3-3.7-0.9c-1.1-0.6-1.9-1.5-2.6-2.6c-0.6-1.1-0.9-2.4-0.9-3.8c0-1.4,0.3-2.7,1-3.8
				c0.6-1.1,1.5-2,2.6-2.6s2.4-0.9,3.8-0.9C419.9,186.8,421.2,187.1,422.3,187.8z M421.3,199.1c0.8-0.5,1.5-1.1,1.9-2
				c0.5-0.8,0.7-1.8,0.7-2.9c0-1.1-0.2-2-0.7-2.9c-0.5-0.8-1.1-1.5-1.9-2c-0.8-0.5-1.7-0.7-2.8-0.7c-1,0-2,0.2-2.8,0.7
				s-1.5,1.1-1.9,2c-0.5,0.8-0.7,1.8-0.7,2.9c0,1.1,0.2,2,0.7,2.9c0.5,0.8,1.1,1.5,1.9,2c0.8,0.5,1.7,0.7,2.8,0.7
				C419.5,199.8,420.5,199.5,421.3,199.1z"/>
		</g>
		<g>
			<path class="st0" d="M438.8,187.7c1,0.6,1.8,1.5,2.4,2.5c0.6,1.1,0.8,2.3,0.8,3.7c0,0.3-0.1,0.5-0.3,0.7
				c-0.2,0.2-0.4,0.3-0.7,0.3h-10.7c0.1,1.5,0.7,2.6,1.7,3.5c1,0.9,2.2,1.4,3.7,1.4c0.6,0,1.3-0.1,1.9-0.3c0.6-0.2,1.2-0.5,1.6-0.8
				c0.2-0.2,0.5-0.3,0.7-0.3c0.2,0,0.4,0.1,0.6,0.2c0.2,0.2,0.3,0.5,0.3,0.7c0,0.2-0.1,0.4-0.3,0.6c-0.6,0.5-1.3,0.9-2.2,1.2
				c-0.9,0.3-1.8,0.5-2.6,0.5c-1.4,0-2.7-0.3-3.8-0.9c-1.1-0.6-2-1.5-2.6-2.6c-0.6-1.1-0.9-2.4-0.9-3.8c0-1.4,0.3-2.7,0.9-3.8
				c0.6-1.1,1.4-2,2.5-2.6c1.1-0.6,2.3-0.9,3.6-0.9C436.6,186.8,437.8,187.1,438.8,187.7z M432,189.9c-0.9,0.8-1.4,1.9-1.6,3.3h9.7
				c-0.1-1.4-0.6-2.5-1.5-3.3c-0.9-0.8-1.9-1.3-3.3-1.3C434,188.7,432.9,189.1,432,189.9z"/>
		</g>
		<g>
			<path class="st0" d="M463.4,187.5c0.8,0.5,1.4,1.2,1.9,2.1c0.5,0.9,0.7,2,0.7,3.2v7.7c0,0.3-0.1,0.5-0.3,0.7
				c-0.2,0.2-0.4,0.3-0.7,0.3c-0.3,0-0.6-0.1-0.7-0.3s-0.3-0.4-0.3-0.7v-7.7c0-1.3-0.3-2.3-1-3c-0.6-0.7-1.5-1.1-2.5-1.1
				c-1.1,0-2,0.4-2.7,1.1c-0.7,0.7-1,1.7-1,2.9v0.1v7.7c0,0.3-0.1,0.5-0.3,0.7c-0.2,0.2-0.4,0.3-0.7,0.3c-0.3,0-0.5-0.1-0.7-0.3
				c-0.2-0.2-0.3-0.4-0.3-0.7v-7.7c0-1.3-0.3-2.3-1-3c-0.6-0.7-1.5-1.1-2.5-1.1c-1.1,0-2,0.4-2.7,1.1c-0.7,0.7-1.1,1.7-1.1,2.8v7.9
				c0,0.3-0.1,0.5-0.3,0.7s-0.4,0.3-0.7,0.3c-0.3,0-0.6-0.1-0.7-0.3s-0.3-0.4-0.3-0.7V188c0-0.3,0.1-0.5,0.3-0.7
				c0.2-0.2,0.4-0.3,0.7-0.3c0.3,0,0.5,0.1,0.7,0.3c0.2,0.2,0.3,0.4,0.3,0.7v0.6c0.5-0.6,1.1-1,1.8-1.3c0.7-0.3,1.4-0.5,2.2-0.5
				c1,0,1.9,0.2,2.6,0.7c0.8,0.4,1.4,1.1,1.9,1.9c0.5-0.8,1.2-1.4,2-1.9c0.8-0.4,1.8-0.7,2.8-0.7C461.6,186.8,462.6,187,463.4,187.5
				z"/>
		</g>
		<path class="st0" d="M307,182.2h3.1v-1.7h-5.1c-6.4,0-9,4-9,9v3.4c0,5,2.3,9,9,9h5.1v-1.7H307c-8.9,0.4-9.1-3.4-9.1-7.7h12.2v-2
			h-12.2C297.9,186.8,297,182.2,307,182.2z"/>
	</g>
	
		<image style="overflow:visible;" width="922" height="871" xlink:href="4A9CE6A2A9B22522.png"  transform="matrix(0.24 0 0 0.24 119.252 -19.6133)">
	</image>
	<g>
		<path class="st1" d="M259.2,21.6c0,0-34.3-4.9-78.6,40.4c0,0-40.9,46.6-3.9,77.6c0,0,24.4,21.2,69.8-3c0,0,14.8-7.4,24.2-15.5
			c0,0,6.2-6.7-4.7-6.2c0,0-27.4,24.4-54.5,17.7c0,0-31.5-4.2-27.9-39.7h98.1c0,0,6.2-0.6,15-8.1C296.6,84.9,317.3,27.5,259.2,21.6z
			 M279.6,77.6h-91.7c8.4-21,26.1-32.6,26.1-32.6c38.2-19.5,57.7,3,57.7,3C284.1,62.5,279.6,77.6,279.6,77.6z"/>
	</g>
	<g>
		<path class="st1" d="M259.2,22.6c0,0-34.3-4.9-78.6,40.4c0,0-40.9,46.6-3.9,77.6c0,0,24.4,21.2,69.8-3c0,0,14.8-7.4,24.2-15.5
			c0,0,6.2-6.7-4.7-6.2c0,0-27.4,24.4-54.5,17.7c0,0-31.5-4.2-27.9-39.7h98.1c0,0,6.2-0.6,15-8.1C296.6,85.9,317.3,28.5,259.2,22.6z
			 M279.6,78.6h-91.7C196.3,57.5,214,46,214,46c38.2-19.5,57.7,3,57.7,3C284,63.5,279.6,78.6,279.6,78.6z"/>
	</g>
	<path class="st2" d="M20.9,77.4h12.6V64.4l33.6,12.9V63.7l-19.2-6.3l-3.4-0.9h11.6c0,0,10.6-4.4,10.6-17.1c0,0,0-14.3-12.6-16H20.9
		v12.3l30.6-0.3c0,0,3.5,0.2,2.7,4.7c0,0,0.5,4.1-2.5,4.5H32.1c0,0-11.2,0.6-11.2,13.3V77.4z"/>
	<path class="st2" d="M83.5,35.2h29.2V23.5H78.9c0,0-17,7.3-7.9,26.3c0,0,0.8,0.8-0.1,1.7c0,0-10.4,17.3,7.9,25.8h33.9V65.6H82.9
		c-1.3,0-5.4-5.8-0.3-9.4h30.1V44.6H83.5C82.7,43.7,78.5,39.4,83.5,35.2z"/>
	<path class="st2" d="M313.3,106.1h29.2V94.4h-30.1c-0.1,0-0.3,0.1-0.4,0.1c-9.8-0.6-16.8,15.4-10.4,25.5c0,0,0.8,0.8-0.1,1.7
		c0,0-9,20.9,10.5,26.5h30.5v-11.7h-29.8c-1.3,0-5.4-5.8-0.3-9.4h30.1v-11.7h-29.2C312.4,114.7,308.3,110.3,313.3,106.1z"/>
	<path class="st2" d="M114.2,23.5l12.9,0l13.6,41.3c0,0,1.3,2.8,2.6,0l13.1-41.3l13.1,0l-16.5,49.8c-1.4,4.1-17.3,7.1-22.2,0
		L114.2,23.5z"/>
	<path class="st2" d="M423.4,106.4h25.2V94.6h-26.7c-12.2,0-15.7,10.5-16.4,15.6l-0.2,1.5v0.4c-0.1,1.6,0,2.6,0,2.6v32.5H417V127
		h31.6v-11.8H417v-4C417.4,106.2,423.2,106.5,423.4,106.4z"/>
	<path class="st2" d="M388.4,93.6v43.6c0,0-5.4,1.3-6.7-10.7c0,0-2.8-27.1-16-31.9c-1.1-0.6-16.9-3.9-18.8,9l-0.1,43.6h12.2v-39.2
		c0,0,1.6-8.1,5.4,1.3l9.9,30.6c0,0,2.1,8.3,13.2,8.3c0,0,11.7-1,13-11.1V93.6H388.4z"/>
</g>
</svg>
