<?xml version="1.0" encoding="UTF-8"?>
<svg width="231px" height="230px" viewBox="0 0 231 230" version="1.1" xmlns="http://www.w3.org/2000/svg" xmlns:xlink="http://www.w3.org/1999/xlink">
    <!-- Generator: Sketch 52.6 (67491) - http://www.bohemiancoding.com/sketch -->
    <title>Group 8</title>
    <desc>Created with Sketch.</desc>
    <defs>
        <polygon id="path-1" points="0 0.983561326 230.053 0.983561326 230.053 231 0 231"></polygon>
    </defs>
    <g id="Page-1" stroke="none" stroke-width="1" fill="none" fill-rule="evenodd">
        <g id="Group-8" transform="translate(0.000000, -1.000000)">
            <g id="Group-3" transform="translate(0.000000, 0.017000)">
                <mask id="mask-2" fill="white">
                    <use xlink:href="#path-1"></use>
                </mask>
                <g id="Clip-2"></g>
                <path d="M132.704,32.8487 C122.789,32.9117 115.519,40.3807 115.619,50.4017 C115.715,59.9437 123.257,67.5067 132.755,67.5827 C142.343,67.6597 150.138,59.8107 150.12,50.0977 C150.1,40.1707 142.644,32.7857 132.704,32.8487 M134.434,166.4297 C130.107,171.6117 126.394,176.5307 122.122,180.9037 C120.724,182.3347 117.873,182.3467 115.687,183.0067 C115.33,180.8857 114.229,178.5637 114.736,176.6737 C118.826,161.4177 123.196,146.2377 127.525,131.0467 C131.664,116.5217 135.857,102.0117 140.181,86.9547 C137.502,86.9547 135.323,86.6807 133.234,86.9997 C120.572,88.9307 107.912,90.8907 95.309,93.1587 C93.836,93.4237 92.714,95.6327 90.889,97.4907 C104.54,99.5237 105.933,101.6697 102.45,114.2027 C99.556,124.6157 96.381,134.9507 93.474,145.3607 C90.077,157.5217 86.337,169.6197 83.693,181.9487 C81.758,190.9687 87.438,197.7867 96.622,199.3387 C104.354,200.6447 111.132,198.1077 117.249,193.7217 C126.229,187.2837 132.387,178.4477 137.946,168.7857 C136.635,167.9067 135.573,167.1937 134.434,166.4297 M114.328,230.9987 C50.833,230.6927 -0.402,178.8317 0.002,115.2767 C0.407,51.7327 52.102,0.7057 115.794,0.9847 C179.063,1.2607 230.33,52.9727 230.052,116.2317 C229.77,180.2547 178.291,231.3067 114.328,230.9987 Z" id="Fill-1" fill="#7E9FDE" mask="url(#mask-2)"></path>
            </g>
            <path d="M134.4345,166.4463 C135.5735,167.2113 136.6345,167.9233 137.9465,168.8033 C132.3865,178.4653 126.2285,187.3003 117.2495,193.7383 C111.1315,198.1253 104.3535,200.6613 96.6225,199.3553 C87.4385,197.8033 81.7585,190.9863 83.6925,181.9653 C86.3375,169.6363 90.0775,157.5393 93.4735,145.3773 C96.3805,134.9673 99.5555,124.6333 102.4495,114.2193 C105.9325,101.6873 104.5405,99.5413 90.8885,97.5073 C92.7135,95.6503 93.8365,93.4403 95.3095,93.1753 C107.9125,90.9073 120.5725,88.9473 133.2335,87.0163 C135.3225,86.6973 137.5025,86.9713 140.1805,86.9713 C135.8565,102.0283 131.6645,116.5383 127.5255,131.0643 C123.1965,146.2553 118.8255,161.4353 114.7355,176.6903 C114.2285,178.5803 115.3305,180.9023 115.6865,183.0243 C117.8735,182.3633 120.7245,182.3513 122.1215,180.9203 C126.3935,176.5483 130.1065,171.6293 134.4345,166.4463" id="Fill-4" fill="#FFFFFF"></path>
            <path d="M132.704,32.8657 C142.644,32.8027 150.1,40.1877 150.12,50.1147 C150.138,59.8277 142.343,67.6767 132.755,67.5997 C123.257,67.5237 115.715,59.9607 115.619,50.4187 C115.519,40.3977 122.789,32.9287 132.704,32.8657" id="Fill-6" fill="#FFFFFF"></path>
        </g>
    </g>
</svg>