<svg id="Layer_1" data-name="Layer 1" xmlns="http://www.w3.org/2000/svg" viewBox="0 0 16.01 16"><defs><style>.cls-1{fill:#92d050;}.cls-2{fill:#7e7e7e;}</style></defs><title>badge-science-open</title><path class="cls-1" d="M13.72.23A3.14,3.14,0,0,1,15,1.06a3.59,3.59,0,0,1,.79,1.41,5.56,5.56,0,0,1,.21,1V0H12.62A4.93,4.93,0,0,1,13.72.23Z"/><path class="cls-1" d="M13,1.68a2.4,2.4,0,0,0-1.1-.23,2.28,2.28,0,0,0-1.12.25,2.09,2.09,0,0,0-.72.67,2.81,2.81,0,0,0-.39,1,6,6,0,0,0-.11,1.19,7.16,7.16,0,0,0,.11,1.31,2.82,2.82,0,0,0,.37,1,1.71,1.71,0,0,0,.7.63,2.48,2.48,0,0,0,1.11.22,2.27,2.27,0,0,0,1.11-.25,2,2,0,0,0,.72-.67,2.85,2.85,0,0,0,.39-1,6,6,0,0,0,.12-1.21A6.88,6.88,0,0,0,14,3.28a2.73,2.73,0,0,0-.38-1A1.77,1.77,0,0,0,13,1.66Z"/><path class="cls-1" d="M15.79,6.46A4,4,0,0,1,15,8a3.57,3.57,0,0,1-1.35.93,5,5,0,0,1-1.86.32,5.48,5.48,0,0,1-1.82-.27A3.13,3.13,0,0,1,8.65,8.1a3.56,3.56,0,0,1-.78-1.42,7.15,7.15,0,0,1-.26-2,6.32,6.32,0,0,1,.28-1.95,4,4,0,0,1,.82-1.47A3.58,3.58,0,0,1,10.06.29,4.45,4.45,0,0,1,11.26,0H0V16H16V5.41a5.86,5.86,0,0,1-.22,1.05Z"/><path class="cls-2" d="M6.5,6.44a2.72,2.72,0,0,1-.26,1.22,2.42,2.42,0,0,1-.73.88,3.32,3.32,0,0,1-1.12.53,5.6,5.6,0,0,1-2.27.11A5.16,5.16,0,0,1,1.38,9,4.2,4.2,0,0,1,.83,8.8a1.55,1.55,0,0,1-.32-.21.67.67,0,0,1-.16-.3A2.65,2.65,0,0,1,.3,7.68a3.74,3.74,0,0,1,0-.42A1.24,1.24,0,0,1,.37,7a.24.24,0,0,1,.09-.13.25.25,0,0,1,.14,0A.67.67,0,0,1,.89,7a4.37,4.37,0,0,0,.49.25,5.12,5.12,0,0,0,.68.25,2.92,2.92,0,0,0,.88.12,2.34,2.34,0,0,0,.55-.06,1.4,1.4,0,0,0,.42-.18A.75.75,0,0,0,4.18,7a.94.94,0,0,0,.09-.42.69.69,0,0,0-.17-.47,1.45,1.45,0,0,0-.45-.34A4.76,4.76,0,0,0,3,5.54L2.3,5.26a6.51,6.51,0,0,1-.72-.35,2.8,2.8,0,0,1-.63-.49,2.26,2.26,0,0,1-.44-.7,2.59,2.59,0,0,1-.17-1A2.48,2.48,0,0,1,.57,1.67,2.34,2.34,0,0,1,1.23.83a3.07,3.07,0,0,1,1-.53A4.61,4.61,0,0,1,3.65.11a4.84,4.84,0,0,1,.74.06A4.49,4.49,0,0,1,5,.31a2.84,2.84,0,0,1,.49.18,1.84,1.84,0,0,1,.29.16.54.54,0,0,1,.12.14A.6.6,0,0,1,6,.95C6,1,6,1.09,6,1.19a3.32,3.32,0,0,1,0,.35,3.9,3.9,0,0,1,0,.4A1,1,0,0,1,6,2.18a.21.21,0,0,1-.08.13.25.25,0,0,1-.13,0,.59.59,0,0,1-.25-.1L5.09,2a5.66,5.66,0,0,0-.6-.21,3,3,0,0,0-.78-.09,2,2,0,0,0-.54.06A1,1,0,0,0,2.8,2a.75.75,0,0,0-.22.28.84.84,0,0,0-.07.34.67.67,0,0,0,.17.47,1.61,1.61,0,0,0,.45.34,5.65,5.65,0,0,0,.64.27c.24.08.48.18.73.28a6.47,6.47,0,0,1,.73.35,2.75,2.75,0,0,1,.64.49,2.25,2.25,0,0,1,.45.7,2.44,2.44,0,0,1,.17,1Z"/></svg>